<?xml version="1.0" standalone="no"?>
<!DOCTYPE svg PUBLIC "-//W3C//DTD SVG 1.1//EN" "http://www.w3.org/Graphics/SVG/1.1/DTD/svg11.dtd" >
<svg xmlns="http://www.w3.org/2000/svg">
<metadata>
Created by FontPrep 20130207 at Thu Jan 28 11:36:25 2016
 By Sil van Diepen
(c) 1989, 1995, 2001 Adobe Systems Incorporated. All rights reserved.
</metadata>
<defs>
<font id="3eaba91beb7b625b23e94e8dc7177288" horiz-adv-x='1024' >
  <font-face 
    font-family="VAG Rounded Std Light"
    font-weight="900"
    font-stretch="normal"
    units-per-em="2048"
    panose-1="2 15 9 2 2 2 4 2 2 4"
    ascent="1577"
    descent="-471"
    x-height="1090"
    cap-height="1470"
    bbox="-354 -645 2183 1960"
    underline-thickness="102"
    underline-position="-102"
    unicode-range="U+0020-FB02"
  />
<missing-glyph horiz-adv-x="1024" 
d="M0 0v1434h1024v-1434h-1024zM512 809l348 522h-696zM573 717l349 -522v1044zM164 102h696l-348 523zM102 1239v-1044l349 522z" />
    <glyph glyph-name="f_i" unicode="fi" 
d="M752 154v782q0 70 45 118t115 48t114 -48t45 -118v-782q0 -70 -45.5 -118t-115.5 -48t-114 48t-44 118zM721 1386q0 80 56.5 136t134.5 56t134 -56t56 -136t-56 -135t-134 -55t-135 55q-56 55 -56 135zM156 154v641h-37q-168 0 -168 147t168 148h37v143q0 147 93 245
t238 99q213 0 213 -147t-151 -148q-39 0 -56 -22t-18 -82v-88h88q168 0 168 -148t-168 -147h-88v-641q0 -70 -45.5 -118t-115.5 -48t-114 48t-44 118z" />
    <glyph glyph-name="f_l" unicode="fl" 
d="M752 154v1257q0 70 45 118t115 48t114 -48t45 -118v-1257q0 -70 -45.5 -118t-115.5 -48t-114 48t-44 118zM156 154v641h-37q-168 0 -168 147t168 148h37v143q0 147 93 245t238 99q213 0 213 -147t-151 -148q-39 0 -56 -22t-18 -82v-88h88q168 0 168 -148t-168 -147h-88
v-641q0 -70 -45.5 -118t-115.5 -48t-114 48t-44 118z" />
    <glyph glyph-name=".notdef" horiz-adv-x="1024" 
d="M0 0v1434h1024v-1434h-1024zM512 809l348 522h-696zM573 717l349 -522v1044zM164 102h696l-348 523zM102 1239v-1044l349 522z" />
    <glyph glyph-name=".null" horiz-adv-x="0" 
 />
    <glyph glyph-name="nonmarkingreturn" horiz-adv-x="681" 
 />
    <glyph glyph-name="space" unicode=" " horiz-adv-x="569" 
 />
    <glyph glyph-name="exclam" unicode="!" horiz-adv-x="532" 
d="M426 1311v-719q0 -76 -43 -128t-117 -52t-116 52t-44 128v719q0 76 44 128t117 52t116 -52t43 -128zM88 143.5q0 72.5 53 126.5t125 54t125 -54t53 -126t-53 -124.5t-125 -52.5t-125 52t-53 124.5z" />
    <glyph glyph-name="quotedbl" unicode="&#x22;" horiz-adv-x="985" 
d="M555 981v346q0 63 37 103t98 40t98 -40t37 -103v-346q0 -63 -37 -103t-98 -40t-98 40t-37 103zM160 981v346q0 63 37 103t98 40t98 -40t37 -103v-346q0 -63 -37 -103t-98 -40t-98 40t-37 103z" />
    <glyph glyph-name="numbersign" unicode="#" horiz-adv-x="1228" 
d="M195 410q-49 0 -74 28t-25 70t25 70.5t74 27.5h104l33 244h-78q-49 0 -74 29q-24 29 -24 69t24 70q25 29 74 29h108l44 317q14 106 114 106q40 0 66 -24t26 -50t-8 -81l-37 -268h185l43 317q14 106 114 106q39 0 66 -24t27 -50t-9 -81l-37 -268h78q49 0 74 -28.5
t25 -70.5t-25 -70t-74 -28h-104l-33 -244h78q49 0 74 -28t25 -68t-25 -71q-25 -30 -74 -29h-109l-43 -316q-14 -106 -114 -106q-39 0 -66 24t-27 50t9 81l37 267h-185l-43 -316q-14 -106 -115 -106q-39 0 -65 24t-26 50t8 81l36 267h-77zM692 606l33 244h-186l-33 -244h186z
" />
    <glyph glyph-name="dollar" unicode="$" horiz-adv-x="1290" 
d="M121 205q0 66 43 118t104 52q27 0 131 -44t185 -44v317q-250 74 -354 172q-103 98 -103 244q0 199 131 326t326 145v94q0 61 61 62q61 0 62 -62v-94q120 -4 204 -36t121 -75.5t37 -105.5t-38 -108t-87 -46t-121 38t-116 38v-289q199 -59 316 -146q148 -108 146 -310
q0 -115 -44 -208q-76 -161 -262 -239q-79 -33 -156 -37v-90q1 -61 -61 -61t-62 61v90q-463 36 -463 238zM471 1064q0 -50 32 -80t81 -42v254q-49 -12 -81 -47t-32 -85zM707 287q51 0 85 42t34 100t-30 91t-89 51v-284z" />
    <glyph glyph-name="percent" unicode="%" horiz-adv-x="1402" 
d="M1072 1491q46 0 81 -34t35 -80t-64 -152l-661 -1149q-31 -55 -59 -82t-74 -27t-80 34t-34 80t63 152l661 1149q31 55 58 82q28 27 74 27zM268 1161q0 -39 24 -67t62 -28t63 28q23 30 23 68t-23 67q-25 29 -63 29t-62 -29t-24 -68zM1049 200q39 0 63 29t23 68q0 39 -24 68
q-25 29 -63 29t-62 -29t-24 -68t24 -68t63 -29zM35.5 1161q-0.5 135 93 233t225.5 98t226 -98t94 -232t-93 -232t-229 -98t-226 97t-90.5 232zM1048 626q134 0 227 -98t93 -231t-93 -231t-228 -98t-227 97t-91 232t93 232t226 97z" />
    <glyph glyph-name="ampersand" unicode="&#x26;" horiz-adv-x="1441" 
d="M1348 123q0 -53 -48 -94t-102 -42t-78.5 16t-62.5 63l-60 67q-199 -166 -481 -166q-199 0 -337 120t-138 314q0 156 86 257t244 182q-47 53 -72 87q-64 87 -66 195q0 160 119 256t299 96t304 -86t124 -264q-1 -115 -69 -207t-181 -153l207 -240l80 99q29 35 43 51
t41.5 32t67.5 16t86 -43.5t46 -101.5t-112 -176l-74 -75l62 -70q72 -80 72 -133zM360 404q0 -72 56 -125t141 -54q137 1 262 107l-274 305q-93 -57 -139 -109t-46 -124zM668 1252.5q-60 -0.5 -100 -34.5t-40 -86t26 -92t95 -96q160 74 160 172q-1 63 -41 100t-100 36.5z" />
    <glyph glyph-name="quotesingle" unicode="'" horiz-adv-x="530" 
d="M131 981v346q0 63 37 103t98 40t99 -39q37 -40 36 -104v-346q-1 -63 -37 -103t-98 -40t-98 40t-37 103z" />
    <glyph glyph-name="parenleft" unicode="(" horiz-adv-x="530" 
d="M80 573q0 426 129 746q39 90 72 131t93 41t100 -35t40 -94q0 -12 -38 -125t-76 -296t-38 -367t38 -368t76 -296.5t38 -124.5q0 -59 -40 -94t-100 -35t-93 41t-72 131q-129 319 -129 745z" />
    <glyph glyph-name="parenright" unicode=")" horiz-adv-x="530" 
d="M451 573q0 -426 -129 -745q-39 -90 -72 -131t-93 -41t-101 35q-40 35 -40 94q0 12 38 125t76 295.5t38 366.5t-38 368t-76 297t-38 125q0 59 40 94t100 35t94 -41t72 -131q129 -320 129 -746z" />
    <glyph glyph-name="asterisk" unicode="*" horiz-adv-x="796" 
d="M397 1470q47 0 79 -24t32 -72q0 -18 -8 -64t-11 -65q31 22 73 53t85 31t75 -37t32 -74q0 -61 -60 -90q-20 -10 -58 -24t-54 -23q16 -8 54 -22q116 -43 118 -105q0 -48 -32 -84t-73 -36t-71 20t-89 64l19 -130q0 -48 -32 -72t-79 -24t-79 24t-31 72q0 18 8 64t10 66
q-62 -42 -91 -63t-70 -21t-71 36t-30 78q-1 42 23 64t82 44t65 25q-5 5 -65 27t-82 44t-23 64q0 42 30 78t69 35.5t65 -17.5q68 -45 98 -67l-18 129q0 96 110 96z" />
    <glyph glyph-name="plus" unicode="+" horiz-adv-x="1228" 
d="M479 715v301q0 66 35.5 104t99.5 38t100 -38.5t36 -103.5v-301h301q67 0 105 -35.5t38 -99.5t-39 -100t-104 -36h-301v-301q0 -67 -36 -105t-100 -38t-100 39t-35 104v301h-301q-63 0 -103 39t-40 99t39 96t104 37h301z" />
    <glyph glyph-name="comma" unicode="," horiz-adv-x="569" 
d="M463 194q0 -52 -31 -108l-168 -301q-53 -94 -145 -94q-68 0 -112 39t-44 90t31 108l168 301q53 94 145 95q68 0 112 -39t44 -91z" />
    <glyph glyph-name="hyphen" unicode="-" horiz-adv-x="872" 
d="M195 707h483q63 -1 99 -37t36 -98t-36 -99t-99 -37h-483q-63 0 -100 37q-36 37 -36 98t36 99q37 37 100 37z" />
    <glyph glyph-name="period" unicode="." horiz-adv-x="569" 
d="M286 -33q-72 0 -126 52t-54 124.5t54 126.5t126 54t124.5 -54t52.5 -126t-52.5 -124.5t-124.5 -52.5z" />
    <glyph glyph-name="slash" unicode="/" horiz-adv-x="948" 
d="M826 1491q38 0 69 -30t31 -79t-78 -196l-551 -1051q-23 -41 -48 -86t-57 -63t-70 -18t-69 30t-31 78.5t78 195.5l551 1051q23 41 48 86t56 64q33 18 71 18z" />
    <glyph glyph-name="zero" unicode="0" horiz-adv-x="1290" 
d="M35 729q0 305 146 524q73 109 193 173t272 64t270 -64q220 -120 300 -406t0.5 -578t-300.5 -410q-120 -65 -272 -65t-270 65q-222 121 -302 415q-37 135 -37 282zM379 729q0 -239 106 -367q63 -76 159 -76t161 76q108 130 107 368t-107 366q-63 76 -159 76t-161 -76
q-106 -128 -106 -367z" />
    <glyph glyph-name="one" unicode="1" horiz-adv-x="681" 
d="M250 164v987h-105q-73 -1 -113 45t-40 108t41 108t112 46h271q166 0 166 -166v-1128q0 -86 -45 -131t-121 -45t-121 45t-45 131z" />
    <glyph glyph-name="two" unicode="2" horiz-adv-x="1024" 
d="M858 307q72 0 113 -45.5t41 -107.5t-41 -108t-113 -46h-670q-84 0 -136 41t-52 94q0 91 99 201q36 39 87 90l66 66q84 84 174 198t120 160q77 119 77 184q0 137 -127 137q-74 0 -113 -48.5t-50 -106.5t-48 -106t-109 -48t-114 48t-42 112q0 193 142 331t346 138
t337.5 -123t133.5 -319q1 -102 -53 -213q-54 -112 -112 -184t-162 -184t-142 -161h348z" />
    <glyph glyph-name="three" unicode="3" horiz-adv-x="1062" 
d="M0 365q0 59 49 105t101 46q93 0 144 -81q22 -33 48 -67q63 -82 176 -81q72 0 119 51t47 123q0 156 -207 160q-57 1 -99 41t-42 110t37 100t137 56q125 27 125 135q0 53 -36 81t-90 28t-99 -28t-70 -60q-68 -87 -158 -87q-59 0 -97 47t-38 105q1 145 149 243t324 98
t305 -108t129 -286t-163 -301q115 -45 176 -143t61 -228q0 -197 -147 -327t-365 -130t-367 122t-149 276z" />
    <glyph glyph-name="four" unicode="4" horiz-adv-x="1251" 
d="M694 168v139h-547q-85 1 -125 41t-40 98t63 154l487 754q42 66 98 92t154 25t164 -69t66 -181v-619h69q168 0 168 -147t-168 -148h-69v-135q0 -90 -42 -137t-117 -47t-118 47t-43 133zM694 602v522h-4l-303 -522h307z" />
    <glyph glyph-name="five" unicode="5" horiz-adv-x="1024" 
d="M590 991q202 0 316 -139t114 -356t-155 -373t-386 -156q-171 0 -323 80t-152 193q0 72 41 118t97 47t152 -59t180 -60t138 62q52 62 52 160t-44 156t-117 58t-137 -37.5t-120 -37.5t-92.5 33t-36.5 92t10 150l51 399q10 86 54 112t122 25h500q72 0 113 -46t41 -107
t-41 -107t-113 -47h-395l-23 -180q76 20 154 20z" />
    <glyph glyph-name="six" unicode="6" horiz-adv-x="1101" 
d="M20 465q0 322 289 680q181 223 249 285t136 62t111 -54t43 -104t-42 -102t-125 -140t-142 -174l4 -5q49 16 129 17q176 0 293 -139t116 -318q1 -215 -149 -360t-386 -145t-382 136q-144 138 -144 361zM365 473q0 -76 55 -131t131 -55t131 55t55 131t-55 131t-131 55
t-131 -55t-55 -131z" />
    <glyph glyph-name="seven" unicode="7" horiz-adv-x="985" 
d="M147 1151q-73 -1 -113 45t-40 108t41 108t112 46h672q78 0 125 -49t47 -103t-47 -157l-465 -1004q-55 -124 -114 -146q-31 -11 -89 -11t-102 47t-44.5 98t52.5 162l408 856h-443z" />
    <glyph glyph-name="eight" unicode="8" 
d="M1042 1081q0 -96 -43 -173t-92 -115q97 -59 147 -153t50 -198q0 -203 -148 -339t-386 -136t-386.5 136t-148.5 339q0 104 49 198t147 153q-49 39 -92 115t-43 173q0 195 136 303t337 108t337 -108.5t136 -302.5zM570 668q-80 0 -136 -56t-55 -136q0 -80 55 -134.5
t135 -54.5t136 55q55 55 55 134.5t-55 135.5t-135 56zM428 1055q0 -57 42 -99t99 -42t99 40q42 42 43 100t-41 100t-100 42t-100 -42t-42 -99z" />
    <glyph glyph-name="nine" unicode="9" horiz-adv-x="1101" 
d="M1081 993q0 -322 -288 -680q-181 -223 -249 -284t-136 -61t-111 54t-43 103t42 101t125 140t142 175l-4 4q-49 -16 -129 -17q-176 0 -293 140t-117 317q0 215 150 361t386 146t380 -138t145 -361zM737 985q0 76 -55 131t-131 55t-131 -55t-55 -131t55 -131t131 -55
t131 55t55 131z" />
    <glyph glyph-name="colon" unicode=":" horiz-adv-x="569" 
d="M286 -33q-72 0 -126 52t-54 124.5t54 126.5t126 54t124.5 -54t52.5 -126t-52.5 -124.5t-124.5 -52.5zM286 606q-72 0 -126 52t-54 125t54 126t126 53t124 -53q53 -53 53 -126t-52.5 -125t-124.5 -52z" />
    <glyph glyph-name="semicolon" unicode=";" horiz-adv-x="569" 
d="M463 194q0 -52 -31 -108l-168 -301q-53 -94 -145 -94q-68 0 -112 39t-44 90t31 108l168 301q53 94 145 95q68 0 112 -39t44 -91zM286 606q-72 0 -126 52t-54 125t54 126t126 53t124 -53q53 -53 53 -126t-52.5 -125t-124.5 -52z" />
    <glyph glyph-name="less" unicode="&#x3c;" horiz-adv-x="1228" 
d="M47 580q0 80 76 116l833 383q60 29 112 29t83 -33t31 -90q0 -88 -97 -129l-659 -276l659 -277q96 -41 97 -129q0 -57 -31 -90t-83 -33t-112 29l-833 383q-76 37 -76 117z" />
    <glyph glyph-name="equal" unicode="=" horiz-adv-x="1228" 
d="M178 956h873q67 0 105 -36t38 -99t-39 -99t-104 -36h-873q-66 0 -104 36t-39 99q1 63 39 99t104 36zM178 473h873q67 0 105 -36t38 -99t-39 -99t-104 -36h-873q-66 0 -104 36t-39 99q1 63 39 99t104 36z" />
    <glyph glyph-name="greater" unicode="&#x3e;" horiz-adv-x="1228" 
d="M47 985q0 57 31 90t83 33t111 -29l834 -383q76 -36 76 -116t-76 -117l-834 -383q-59 -29 -111 -29t-83 33t-31 90q0 88 96 129l660 277l-660 276q-96 41 -96 129z" />
    <glyph glyph-name="question" unicode="?" horiz-adv-x="1024" 
d="M317 571v164q0 80 52 105q34 17 110 30q156 31 156 156q-1 51 -41 92t-100 41q-102 0 -153 -65q-21 -27 -43 -54q-52 -65 -122 -65t-115 46q-43 46 -43 107q0 162 148 262t339 100t339 -123.5t147 -330.5q0 -352 -354 -424v-41q0 -71 -44 -115t-116 -44t-116 44t-44 115z
M299 143.5q0 72.5 53 126.5t125 54t125 -54t53 -126t-53 -124.5t-125 -52.5t-125 52t-53 124.5z" />
    <glyph glyph-name="at" unicode="@" horiz-adv-x="1638" 
d="M778 516q100 0 160 62t60 142q-1 169 -162 169q-80 -1 -138 -63t-57 -144q0 -166 137 -166zM1206 496q66 0 121 81t55 230q0 240 -146 370t-384 130t-398 -169t-160.5 -422t160.5 -409q162 -155 410 -155t377 106q29 23 59 22.5t54 -22.5t24 -54t-22 -52
q-66 -66 -195 -125t-295 -60q-332 0 -563 216t-231 543t228 546t540 219t520 -172t207 -455q1 -128 -41 -234t-104 -168t-136 -106q-124 -74 -236 -74t-116 103h-4q-90 -102 -254 -102q-102 0 -186 98q-83 98 -82 250q0 211 117 351q118 140 282 140q90 0 147 -30t103 -97
l8 37q16 74 96 74q39 0 65 -24t26 -53t-9 -68l-63 -353q-12 -55 -13 -73q0 -39 39 -39z" />
    <glyph glyph-name="A" unicode="A" horiz-adv-x="1290" 
d="M1292 128q0 -66 -44 -103t-116 -37t-110 40q-37 40 -64 122l-40 131h-545l-41 -131q-26 -82 -64 -122t-110 -40t-116 37t-44 103t49 200l320 862q29 80 46 119t50 89q61 93 181 93t182 -93q34 -50 52 -89t46 -119l319 -862q49 -134 49 -200zM819 588l-166 534h-4
l-178 -534h348z" />
    <glyph glyph-name="B" unicode="B" horiz-adv-x="1214" 
d="M412 1163v-274h151q72 0 112 35t40 102q0 137 -152 137h-151zM80 166v1126q0 76 49 121t117 45h391q186 0 298 -105t112 -279t-175 -275q133 -27 213 -124t80 -235q0 -188 -127 -314t-381 -126h-411q-68 0 -117 45t-49 121zM412 594v-299h209q201 0 200 149q0 76 -58 113
t-142 37h-209z" />
    <glyph glyph-name="C" unicode="C" horiz-adv-x="1214" 
d="M766 1491q176 0 308 -56t132 -175q0 -62 -41 -110t-88 -48t-139 35t-164 34q-188 0 -281 -128t-93 -312t90 -308t255 -124q119 0 208 34t133 34t80 -32t44 -62t8 -78t-44 -97q-45 -48 -117 -76q-137 -52 -297 -55q-332 0 -524 218t-193 549q0 331 199 544t524 213z" />
    <glyph glyph-name="D" unicode="D" horiz-adv-x="1366" 
d="M412 1151v-844h176q186 0 282 117t96 310t-94 305t-270 112h-190zM80 166v1126q0 76 49 121t117 45h397q311 0 495 -211t185 -508q0 -343 -198 -541t-482 -198h-397q-68 0 -117 45t-49 121z" />
    <glyph glyph-name="E" unicode="E" horiz-adv-x="948" 
d="M80 166v1126q0 76 49 121t117 45h508q78 0 122 -42t44 -112t-44 -112t-122 -41h-342v-264h313q78 0 122 -41.5t44 -113.5t-44 -112t-122 -40h-313v-273h354q78 1 122 -41t44 -112t-44 -112t-122 -42h-520q-68 0 -117 45t-49 121z" />
    <glyph glyph-name="F" unicode="F" horiz-adv-x="909" 
d="M80 164v1128q0 76 49 121t117 45h508q78 0 122 -42t44 -112t-44 -112t-122 -41h-342v-260h299q78 0 122 -41.5t44 -113.5t-44 -112t-122 -40h-299v-420q0 -86 -46 -131t-120 -45t-120 45t-46 131z" />
    <glyph glyph-name="G" unicode="G" horiz-adv-x="1478" 
d="M889 864h358q176 0 176 -202q1 -299 -181 -497t-498 -198t-508 218t-193 547q0 329 204 544t513 215q221 0 393 -87t172 -233q0 -61 -41 -100t-107 -39t-164 76q-35 28 -99 52t-140 24q-170 0 -272 -130t-102 -320t94 -324t274 -136q129 0 214 77t97 206h-190
q-78 0 -122 41.5t-44 113.5t44 112t122 40z" />
    <glyph glyph-name="H" unicode="H" horiz-adv-x="1441" 
d="M412 594v-430q0 -86 -46 -131t-120 -45t-120 45t-46 131v1130q0 86 46 131t120 45t120 -45t46 -131v-393h618v393q0 86 46 131t120 45t120 -45t46 -131v-1130q0 -86 -46 -131t-120 -45t-120 45t-46 131v430h-618z" />
    <glyph glyph-name="I" unicode="I" horiz-adv-x="491" 
d="M412 1294v-1130q0 -86 -46 -131t-120 -45t-120 45t-46 131v1130q0 86 46 131t120 45t120 -45t46 -131z" />
    <glyph glyph-name="J" unicode="J" horiz-adv-x="872" 
d="M461 1294q0 86 45.5 131t119.5 45t120 -45t47 -131v-843q1 -153 -37 -244t-84 -135t-127 -74t-217 -30.5t-242 69.5q-57 39 -80 74q-22 35 -22 99t39 109t96 45t119 -38t116 -38.5t80 48.5t27 172v786z" />
    <glyph glyph-name="K" unicode="K" horiz-adv-x="1214" 
d="M80 164v1130q0 86 46 131t120 45t120 -45t46 -131v-405l456 497q74 84 144 84t124 -48t54 -111t-66 -133l-395 -398l432 -469q92 -97 92.5 -166t-49.5 -113t-108 -44t-102 28t-59 44t-61 67l-462 520v-483q0 -86 -46 -131t-120 -45t-120 45t-46 131z" />
    <glyph glyph-name="L" unicode="L" horiz-adv-x="909" 
d="M80 166v1128q0 86 46 131t120 45t120 -45t46 -131v-987h356q78 1 122 -41t44 -112t-44 -112t-122 -42h-522q-68 0 -117 45t-49 121z" />
    <glyph glyph-name="M" unicode="M" horiz-adv-x="1781" 
d="M1746.5 142q-0.5 -56 -42.5 -105t-104 -49t-99 17q-76 35 -102 202l-99 647h-4l-223 -717q-25 -81 -67 -115t-116 -34t-115.5 35t-65.5 114l-224 717h-4l-98 -647q-26 -167 -102 -202q-37 -17 -99 -17t-104 49t-43 105q0 56 55 370l131 750q37 209 219 208q117 0 167 -70
t120 -288l162 -502h4l162 502q70 217 120 288t166 70q182 0 220 -208l131 -750q55 -314 54.5 -370z" />
    <glyph glyph-name="N" unicode="N" horiz-adv-x="1441" 
d="M80 164v1130q0 86 46 131t114 45t106 -32t129 -146l551 -690h4v692q0 86 46 131t120 45t120 -45t46 -131v-1130q0 -86 -46 -131t-114 -45t-108 32q-39 32 -127 146l-551 690h-4v-692q0 -86 -46 -131t-120 -45t-120 45t-46 131z" />
    <glyph glyph-name="O" unicode="O" horiz-adv-x="1519" 
d="M760 1491q326 0 522 -208t196 -554t-196 -554t-522 -208t-522 208t-195 554q-1 346 195 554t522 208zM760 1184q-180 0 -270 -132t-90 -322t90 -323t270 -133t270 132t90 323t-90 323t-270 132z" />
    <glyph glyph-name="P" unicode="P" horiz-adv-x="1175" 
d="M412 1163v-399h178q100 0 160 58q59 58 59 148t-59 142t-160 51h-178zM80 164v1128q0 76 49 121t117 45h407q207 0 353 -130t146 -357t-128.5 -365t-359.5 -137h-252v-305q0 -86 -46 -131t-120 -45t-120 45t-46 131z" />
    <glyph glyph-name="Q" unicode="Q" horiz-adv-x="1519" 
d="M760 -33q-326 0 -522 208t-195 554q-1 346 195 554t522 208t522 -208t195 -554q0 -281 -131 -471l79 -70q67 -58 87 -90t20 -82t-39 -90t-90 -40t-89 18.5t-100 75.5l-88 77q-156 -90 -366 -90zM760 1184q-180 0 -270 -132t-90 -322t89 -322q90 -132 271 -134
q59 0 100 15l-4 2q-66 57 -86 89t-20 83t38 91t90 40t89 -18t100 -76l10 -8q43 106 43 237q0 191 -90 323t-270 132z" />
    <glyph glyph-name="R" unicode="R" horiz-adv-x="1175" 
d="M80 164v1128q0 76 49 121t117 45h399q221 0 354 -124t134 -328q1 -162 -91 -272t-249 -138l288 -311q70 -77 69.5 -135t-42.5 -110t-114 -52t-104 18t-67 64l-407 514h-4v-420q0 -86 -46 -131t-120 -45t-120 45t-46 131zM412 1151v-322h219q80 1 125 47t45 118t-48 114
t-122 43h-219z" />
    <glyph glyph-name="S" unicode="S" horiz-adv-x="1099" 
d="M10 205q0 74 42 126t114 52q30 0 146 -42t209 -42t136 39t43 94.5t-24 75.5t-38 32t-50 24t-56 20t-138 43q-208 61 -285 158q-76 97 -74 239q0 225 150 346q151 121 360 121t319 -60t109 -159q-1 -68 -41 -112t-98 -44t-137 28t-151 28t-114 -33t-41.5 -97t124.5 -99
q43 -14 186 -59t250 -138q106 -94 106 -291q0 -240 -156 -364t-403 -124t-404 107q-84 57 -84 131z" />
    <glyph glyph-name="T" unicode="T" horiz-adv-x="950" 
d="M309 164v987h-186q-82 0 -127 41.5t-45 113.5t45 112t127 40h704q82 0 127 -41t45 -111t-45 -112t-127 -43h-186v-987q0 -86 -46 -131t-120 -45t-120 45t-46 131z" />
    <glyph glyph-name="U" unicode="U" horiz-adv-x="1402" 
d="M401 586q0 -141 85 -220t214 -79t215 79t86 220v708q1 86 47 131t120 45t120 -45t45 -131v-708q0 -285 -175.5 -452t-457.5 -167t-456 167t-174 452v708q0 86 45 131t121 45t120 -45t45 -131v-708z" />
    <glyph glyph-name="V" unicode="V" horiz-adv-x="1175" 
d="M1068 1470q58 0 103 -48t45 -99t-34 -135l-414 -1024q-43 -106 -80 -141t-97.5 -35t-98.5 26t-52 56t-26 58.5t-15 35.5l-405 1024q-35 84 -35.5 136t45.5 99t104 47t97 -13q52 -18 100 -136l283 -746l282 746q26 65 60 107t138 42z" />
    <glyph glyph-name="W" unicode="W" horiz-adv-x="1859" 
d="M-8 1309q0 69 46 115t120 46q139 0 172 -147l170 -786h4l239 763q31 92 75 132t112 39t112 -39t74 -132l240 -763h4l170 786q33 147 172 147q74 0 120 -47t46 -114q0 -33 -33 -170l-221 -903q-33 -136 -78 -192t-156 -56q-176 0 -235 182l-213 668h-4l-213 -668
q-59 -182 -236 -182q-111 0 -155 56t-78 192l-221 903q-33 137 -33 170z" />
    <glyph glyph-name="X" unicode="X" horiz-adv-x="1253" 
d="M1180 1314q0 -64 -62 -145l-291 -385l355 -475q45 -59 58 -87t13.5 -85t-45.5 -103t-126 -46t-152 98l-303 414l-303 -414q-72 -98 -152 -98t-126 46t-46 104t13 85t59 86l354 475l-291 385q-61 81 -61 145t46 110t128 46q43 0 80 -24t55 -47t57 -80l187 -258l186 258
q39 57 57 80t56 47t80 24q82 0 128 -46t46 -110z" />
    <glyph glyph-name="Y" unicode="Y" horiz-adv-x="1101" 
d="M385 164v520l-287 385q-113 158 -125 191t-12 63q0 66 50 107q51 40 109 40t94 -20t51 -38t40 -54l246 -350l246 350q25 36 40 54t51 38t94 20t108 -40t51 -97q0 -57 -24 -98t-113 -166l-287 -385v-520q0 -86 -45 -131t-121 -45t-121 45t-45 131z" />
    <glyph glyph-name="Z" unicode="Z" horiz-adv-x="1099" 
d="M946 307q84 1 130 -41t46 -112t-46 -112t-130 -42h-735q-233 0 -234 182q0 61 62 146l627 835h-490q-84 0 -130 41.5t-46 107.5t46 106t130 40h713q117 0 160 -52t43 -106t-36 -114t-120 -172l-530 -707h540z" />
    <glyph glyph-name="bracketleft" unicode="[" horiz-adv-x="720" 
d="M446 1257v-1368h140q52 -1 84 -33t32 -83t-32 -84t-84 -33h-281q-141 0 -141 141v1553q0 141 141 141h281q52 0 84 -33t32 -84t-32 -84t-84 -33h-140z" />
    <glyph glyph-name="backslash" unicode="\" horiz-adv-x="948" 
d="M127 1491q70 0 124 -85q17 -28 46 -83l551 -1051q78 -147 78 -196t-31 -79t-74 -30q-70 0 -124 85q-17 28 -46 83l-551 1051q-78 147 -78 196t31 79t74 30z" />
    <glyph glyph-name="bracketright" unicode="]" horiz-adv-x="720" 
d="M274 -111v1368h-139q-51 0 -84 33t-33 84t33 84t84 33h281q141 0 141 -141v-1553q0 -141 -141 -141h-281q-51 0 -84 33t-33 84t33 84t84 32h139z" />
    <glyph glyph-name="asciicircum" unicode="^" horiz-adv-x="1228" 
d="M614 1470q88 0 136 -88l315 -573q27 -51 27 -90q0 -74 -105 -74q-51 -1 -83 17t-58 65l-232 424l-231 -424q-27 -47 -59 -64t-82 -18q-104 0 -105 74q0 39 27 90l315 573q47 88 135 88z" />
    <glyph glyph-name="underscore" unicode="_" horiz-adv-x="1024" 
d="M1024 -256h-1024q-59 0 -59 51t59 51h1024q59 0 59 -51t-59 -51z" />
    <glyph glyph-name="grave" unicode="`" horiz-adv-x="454" 
d="M461 1356q0 -58 -37 -100t-88 -42t-92 19l-307 133q-76 29 -76 113q0 59 37 100t88 41t92 -18l307 -134q76 -29 76 -112z" />
    <glyph glyph-name="a" unicode="a" horiz-adv-x="1175" 
d="M1108 936v-782q0 -70 -45 -118t-115 -48q-102 0 -149 102q-100 -123 -275 -123q-209 0 -351 167.5t-142 409.5t142 410t351 168q174 0 275 -123q47 102 149 103q70 0 115 -48t45 -118zM350 544q0 -114 58 -192t160 -78t162 78q58 78 58 193t-58 193t-160 78t-162 -80
q-58 -78 -58 -192z" />
    <glyph glyph-name="b" unicode="b" horiz-adv-x="1175" 
d="M68 154v1257q0 70 45 118t115 48t114 -48t45 -118v-379q111 90 264 90q209 0 351 -168t142 -410t-142 -410t-351 -167q-174 0 -274 123q-47 -102 -150 -102q-71 0 -115 48t-44 118zM606 274q102 0 161 78q58 78 58 193q-1 115 -59 193t-160 78t-160 -80q-58 -78 -58 -192
t58 -192t160 -78z" />
    <glyph glyph-name="c" unicode="c" horiz-adv-x="948" 
d="M569 1122q131 0 255 -46t124 -166q0 -62 -38 -105t-83 -43t-108 26t-131 27q-118 -1 -178 -77t-60 -192t58 -194t150 -78t169.5 28t89.5 28q53 0 92 -44t39 -108t-70 -117q-122 -91 -309 -94q-238 0 -387.5 165.5t-149.5 411.5t150 412t387 166z" />
    <glyph glyph-name="d" unicode="d" horiz-adv-x="1175" 
d="M1108 1411v-1257q0 -70 -45 -118t-115 -48q-102 0 -149 102q-100 -123 -275 -123q-209 0 -351 167.5t-142 409.5t142 410t351 168q154 0 264 -90v379q0 70 46 118t115 48t114 -48t45 -118zM350 544q0 -114 58 -192t160 -78t162 78q58 78 58 193t-58 193t-160 78t-162 -80
q-58 -78 -58 -192z" />
    <glyph glyph-name="e" unicode="e" 
d="M952 440h-577q0 -66 59 -122t173 -56t219 50t146 50t81 -38q39 -39 39 -99q0 -111 -155 -185t-347 -73q-252 0 -406 165.5t-154 407.5t160 412t394 170t379 -162t145 -380q0 -80 -37 -110t-119 -30zM788 659q0 61 -60 127t-146 66t-146 -66t-61 -127h413z" />
    <glyph glyph-name="f" unicode="f" horiz-adv-x="681" 
d="M156 154v641h-37q-168 0 -168 147t168 148h37v143q0 147 93 245t238 99q213 0 213 -147t-151 -148q-39 0 -56 -22t-18 -82v-88h88q168 0 168 -148t-168 -147h-88v-641q0 -70 -45.5 -118t-115.5 -48t-114 48t-44 118z" />
    <glyph glyph-name="g" unicode="g" horiz-adv-x="1175" 
d="M1108 936v-830q0 -147 -46 -259q-84 -205 -310 -271q-175 -53 -370 -19q-196 35 -281 116q-50 47 -50 105t42 101t84 43t141 -47t223 -47q247 0 247 283h-4q-88 -123 -300 -123t-332 163t-120.5 399t141.5 404t351 168q174 0 275 -123q47 102 149 103q70 0 115 -48
t45 -118zM788 542q0 118 -58 196t-160 78t-161 -78t-59 -196t58 -195t160 -77t162 77q58 77 58 195z" />
    <glyph glyph-name="h" unicode="h" 
d="M74 154v1257q0 70 45 118t115 48t114 -48t45 -118v-369h4q127 80 287 80t270 -94t111 -283v-591q0 -70 -45.5 -118t-115.5 -48t-114 48t-45 118v505q0 85 -47 139t-129 54t-129 -54t-47 -139v-505q0 -70 -45.5 -118t-115.5 -48t-114 48t-44 118z" />
    <glyph glyph-name="i" unicode="i" horiz-adv-x="454" 
d="M68 154v782q0 70 45 118t115 48t114 -48t45 -118v-782q0 -70 -45.5 -118t-115.5 -48t-114 48t-44 118zM37 1386q0 80 56 136t134 56q79 0 135 -56t56 -136t-56 -135t-134 -55t-134.5 55t-56.5 135z" />
    <glyph glyph-name="j" unicode="j" horiz-adv-x="454" 
d="M68 -289v1225q0 70 45 118t115 48t114 -48t45 -118v-1225q0 -70 -45.5 -118t-115.5 -48t-114 48t-44 118zM37 1386q0 80 56 136t134 56q79 0 135 -56t56 -136t-56 -135t-134 -55t-134.5 55t-56.5 135z" />
    <glyph glyph-name="k" unicode="k" horiz-adv-x="1024" 
d="M74 154v1257q0 70 45 118t115 48t114 -48t45 -118v-680l222 222q113 113 129 121t34 18t70 10q54 0 98 -43t44 -93t-24 -83t-89 -97l-172 -170l268 -340q76 -94 75.5 -144t-40.5 -97t-106 -47t-100 22t-85 86l-320 418h-4v-360q0 -70 -45.5 -118t-115.5 -48t-114 48
t-44 118z" />
    <glyph glyph-name="l" unicode="l" horiz-adv-x="454" 
d="M68 154v1257q0 70 45 118t115 48t114 -48t45 -118v-1257q0 -70 -45.5 -118t-115.5 -48t-114 48t-44 118z" />
    <glyph glyph-name="m" unicode="m" horiz-adv-x="1744" 
d="M74 154v782q0 70 45 118t114 48q115 0 160 -103q37 59 112 91t163 32q193 0 297 -131q53 41 86 63t96 46t127 22q176 0 287 -94t110 -283v-591q0 -70 -45.5 -118t-115.5 -48t-114 48t-44 118v505q0 81 -42 137t-118 56t-118 -56t-42 -137v-505q0 -70 -45 -118t-115 -48
t-114 48t-45 118v505q0 81 -42 137t-118 56t-118 -56t-42 -137v-505q0 -70 -45.5 -118t-115.5 -48t-114 48t-44 118z" />
    <glyph glyph-name="n" unicode="n" 
d="M74 154v782q0 70 45 118t114 48q115 0 160 -103q79 123 265 123t296 -94t111 -283v-591q0 -70 -45.5 -118t-115.5 -48t-114 48t-45 118v505q0 85 -47 139t-129 54t-129 -54t-47 -139v-505q0 -70 -45.5 -118t-115.5 -48t-114 48t-44 118z" />
    <glyph glyph-name="o" unicode="o" 
d="M570 1122q238 0 388 -166t150 -412t-151 -412t-389 -165.5t-388 166t-150 411.5t151 412t389 166zM350 544q0 -114 58 -192t160 -78t162 78q58 78 58 193t-58 193t-160 78t-162 -80q-58 -78 -58 -192z" />
    <glyph glyph-name="p" unicode="p" horiz-adv-x="1175" 
d="M68 -289v1225q0 70 45 118t114 48q102 0 150 -103q100 123 274 123q209 0 351 -168t142 -410t-142 -410t-351 -167q-154 0 -264 90v-346q0 -70 -45.5 -118t-115.5 -48t-114 48t-44 118zM606 274q102 0 161 78q58 78 58 193t-58 193q-59 78 -161 78t-160 -80
q-58 -78 -58 -192t58 -192t160 -78z" />
    <glyph glyph-name="q" unicode="q" horiz-adv-x="1175" 
d="M350 545q0 -115 58 -193t160 -78t162 78q58 78 58 193t-58 193t-160 78t-161 -78t-59 -193zM1108 936v-1225q0 -70 -45 -118t-115 -48t-114 48t-46 118v346q-111 -90 -264 -90q-209 0 -351 167.5t-142 409.5t142 410t351 168q174 0 275 -123q51 102 149 103q70 0 115 -48
t45 -118z" />
    <glyph glyph-name="r" unicode="r" horiz-adv-x="720" 
d="M74 154v782q0 70 45 118t114 48q115 0 160 -103q102 123 221 123q66 0 115 -47t49 -121t-46 -106t-154 -65t-146 -77t-39 -163v-389q0 -70 -45.5 -118t-115.5 -48t-114 48t-44 118z" />
    <glyph glyph-name="s" unicode="s" horiz-adv-x="872" 
d="M448 840q-94 0 -94 -68q0 -34 52 -60t125 -52t147 -62t125 -105t51 -167q0 -164 -119 -261t-287 -97t-299 60t-131 160q0 66 38 110t88 44t144 -46t176.5 -46t82.5 63q0 37 -31.5 55t-103.5 46t-113 45q-135 55 -193 117t-58 196t113 242q114 108 298 108t301 -96
q68 -54 68 -122t-38 -106t-80 -38t-130 40t-132 40z" />
    <glyph glyph-name="t" unicode="t" horiz-adv-x="681" 
d="M156 154v641h-37q-168 0 -168 147t168 148h37v208q0 70 45 118t115 48t114 -48t45 -118v-208h88q168 0 168 -148t-168 -147h-88v-641q0 -70 -45.5 -118t-115.5 -48t-114 48t-44 118z" />
    <glyph glyph-name="u" unicode="u" 
d="M1065 936v-543q1 -209 -139 -317t-356 -108t-356 108.5t-140 316.5v543q0 70 45 118t115 48t114 -48t45 -118v-498q0 -84 53 -130t123 -46t123 46t53 130v498q-1 70 45 118t116 48t114 -48t45 -118z" />
    <glyph glyph-name="v" unicode="v" horiz-adv-x="950" 
d="M-10 948q0 60 47 107t113 47q113 0 153 -121l170 -483h4l170 483q41 121 154 121q67 0 113 -47t46 -107t-49 -184l-260 -647q-53 -129 -176 -129t-176 129l-260 647q-49 124 -49 184z" />
    <glyph glyph-name="w" unicode="w" horiz-adv-x="1556" 
d="M152 1102q119 0 151 -113l156 -518h4l143 449q46 142 102 167q30 15 70 15t76 -17t73 -100q9 -23 23 -65l144 -449h4l155 518q33 113 152 113q76 0 119 -44t43 -110q-4 -57 -49 -178l-224 -625q-28 -81 -74 -119t-125 -38t-119 39t-71 129l-125 376h-4l-125 -376
q-31 -90 -71 -129t-118 -39t-124.5 38t-75.5 119l-223 625q-45 121 -49 178q0 66 43 110t119 44z" />
    <glyph glyph-name="x" unicode="x" horiz-adv-x="1024" 
d="M182 1102q57 0 91 -16t69 -62l170 -211l170 211q35 46 69 62t91 16t104 -46t47 -109t-47 -114q-18 -22 -76 -83l-165 -177l272 -288q63 -73 63 -141t-48 -112t-118 -44t-139 82l-223 260l-223 -260q-69 -82 -139 -82t-118 44t-48 112t63 141l272 288l-165 177
q-57 61 -76 83q-47 57 -47 117t47 106t104 46z" />
    <glyph glyph-name="y" unicode="y" horiz-adv-x="1024" 
d="M0 966q0 54 46 95t110 41q117 0 163 -121l189 -487l178 434q36 86 74 130t106 44t113 -44t45 -106t-39 -151l-473 -1104q-52 -124 -106 -141q-29 -10 -68 -11q-78 -1 -118 47t-40 100t53 173l107 239l-272 650q-68 158 -68 212z" />
    <glyph glyph-name="z" unicode="z" horiz-adv-x="948" 
d="M143 0q-153 0 -153 113q0 50 49 118l410 564h-281q-168 0 -168 147t168 148h614q82 0 116 -34t34 -75t-41 -98l-438 -588h338q168 0 167 -148q0 -147 -167 -147h-648z" />
    <glyph glyph-name="braceleft" unicode="{" horiz-adv-x="720" 
d="M201 -76v416q0 84 -26.5 110t-72.5 26t-72 29t-26 69t26 69t72 29t73 26q26 26 26 109v416q0 268 272 268h152q41 -1 67 -25t26 -68t-26.5 -68t-66.5 -23h-52q-90 0 -90 -119v-406q0 -132 -86 -172q-58 -26 -135 -35v-4q157 -15 199 -97q23 -44 22 -109v-406
q0 -119 90 -119h52q41 0 67 -24t26 -68t-26.5 -68.5t-66.5 -23.5h-152q-272 0 -272 268z" />
    <glyph glyph-name="bar" unicode="|" horiz-adv-x="454" 
d="M104 -512v2048q0 57 32 95t91 38t91 -38t32 -95v-2048q0 -57 -32 -95t-91 -38t-91 38t-32 95z" />
    <glyph glyph-name="braceright" unicode="}" horiz-adv-x="720" 
d="M520 1223v-416q0 -83 26 -109t72 -26t72 -29t26.5 -70t-26 -69t-72.5 -28t-72 -26t-26 -110v-416q0 -268 -272 -268h-152q-40 0 -66 24t-26 68t26 68.5t66 23.5h51q90 0 91 119v406q0 132 86 172q61 27 135 34v4q-157 15 -199 98q-23 44 -22 109v406q0 119 -91 119h-51
q-40 -1 -66 23t-26 69t26 69t66 23h152q272 0 272 -268z" />
    <glyph glyph-name="asciitilde" unicode="~" horiz-adv-x="1228" 
d="M1057 768q88 0 88 -110t-84 -196t-217 -87q-88 -1 -244 69t-208 70t-117 -61t-103 -62q-88 1 -88 111t82 196t192 86t270 -70t210 -70t115 62t104 62z" />
    <glyph glyph-name="uni00A0" unicode="&#xa0;" horiz-adv-x="569" 
 />
    <glyph glyph-name="exclamdown" unicode="&#xa1;" horiz-adv-x="532" 
d="M106 -221v719q0 76 44 128t117 52t116 -52t43 -128v-719q0 -76 -43 -128t-117 -52t-117 52t-43 128zM444 945q0 -73 -53 -126t-125 -53t-125 53t-53 126t53 125t125 52t125 -52t53 -125z" />
    <glyph glyph-name="cent" unicode="&#xa2;" horiz-adv-x="1290" 
d="M506 545q0 -96 43 -169t119 -93v520q-78 -20 -120 -91t-42 -167zM668 -164v131q-217 23 -350 186q-132 163 -132 392t132 391t350 186v119q0 25 18 44t43 19t43 -19t19 -44v-119q127 -10 220 -60t93 -151q0 -63 -38 -106t-84 -43t-98 22t-93 27v-530q51 5 108 27t74 22
q53 0 92 -44t39 -98q0 -92 -98 -150t-215 -71v-131q-1 -25 -19 -44t-43 -19t-43 19t-18 44z" />
    <glyph glyph-name="sterling" unicode="&#xa3;" horiz-adv-x="1290" 
d="M788 887q82 1 128 -45t46 -108t-46 -108t-128 -46h-135q0 -86 -15 -142t-65 -119h543q82 1 131 -43t49 -116t-49 -116t-131 -44h-756q-84 0 -140 40t-56 106q0 102 73 175q29 27 57 95t38 164h-129q-82 0 -128 46t-46 107t46 107t128 47h67q-45 115 -45 178
q-1 197 147 311t394 115q141 0 249 -39q175 -63 248 -219q66 -139 -20 -221q-47 -46 -100 -46t-83 24t-49 58t-44 68q-60 81 -201 80q-82 0 -139 -43t-58 -123q0 -34 39 -143h180z" />
    <glyph glyph-name="currency" unicode="&#xa4;" horiz-adv-x="1290" 
d="M123 729q0 162 86 287l-49 47q-31 31 -31 71t32 72q33 32 77 32t79 -34l39 -39q125 86 289 86t289 -86l39 39q35 35 80 34.5t77 -32.5t32 -72t-32 -71l-49 -47q86 -125 86 -287t-86 -287l49 -47q31 -31 30.5 -71t-32.5 -72t-76 -32.5t-79 34.5l-39 39q-125 -86 -289 -86
t-289 86l-39 -39q-35 -35 -80 -34.5t-77 32.5t-31 72q0 40 31 71l49 47q-86 125 -86 287zM646 1006q-112 0 -188 -81t-76 -197t74 -196q76 -80 190 -80t189 80t74 197q0 117 -75 197q-76 80 -188 80z" />
    <glyph glyph-name="yen" unicode="&#xa5;" horiz-adv-x="1290" 
d="M811 373v-209q0 -86 -45 -131t-121 -45t-121 45t-45 131v209h-295q-38 1 -68 31t-30 69t30 68t68 28h295v115h-295q-38 0 -68 31t-30 69t30 68t68 29h156l-147 188q-113 158 -125 191t-13 63q0 66 50 107q51 40 109 40t94 -20t51 -38t40 -54l246 -350l246 350
q25 36 40 54t51 38t94 20t108 -40t51 -97q0 -57 -24 -98t-113 -166l-148 -188h156q38 0 68 -29q30 -28 30 -68t-30 -70t-68 -30h-295v-115h295q38 -1 68 -29t30 -67t-30 -70t-68 -30h-295z" />
    <glyph glyph-name="brokenbar" unicode="&#xa6;" horiz-adv-x="454" 
d="M104 799v450q0 57 32 95t91 38t91 -38t32 -95v-450q0 -57 -32 -95t-91 -38t-91 38t-32 95zM104 -225v450q0 57 32 95t91 38t91 -38t32 -95v-450q0 -57 -32 -95t-91 -38t-91 38t-32 95z" />
    <glyph glyph-name="section" unicode="&#xa7;" horiz-adv-x="1251" 
d="M119 580q0 199 196 315q-59 51 -82 102t-22 131q0 158 117 260t296 102t307 -84.5t128 -207.5q0 -51 -37 -94t-84 -43q-75 0 -151 92q-27 35 -71 64t-90 29t-77 -25t-31 -75q0 -86 217 -192q89 -43 179 -93t154 -135t65 -194q0 -227 -191 -327q111 -92 111 -201
q0 -186 -120 -286t-301 -100t-314 83q-132 82 -132 207q0 53 36 93t86 40q78 0 144 -88q24 -33 70 -61t100 -28q124 1 124 94q-1 84 -222 197q-92 46 -184 100t-157 138q-64 85 -64 187zM401 625q-1 -29 29 -61t54 -48t83 -51l199 -119q84 51 84 131q0 43 -41 78t-123 82
l-201 119q-84 -51 -84 -131z" />
    <glyph glyph-name="dieresis" unicode="&#xa8;" horiz-adv-x="454" 
d="M465 1576.5q66 0.5 113 -47t47 -113.5t-47 -112t-113 -46t-113 47t-47 113t47 112t113 46.5zM-10 1576.5q66 0.5 112 -47t47 -113.5t-47 -112t-113 -46t-112 47t-47 113t47 112t113 46.5z" />
    <glyph glyph-name="copyright" unicode="&#xa9;" horiz-adv-x="1638" 
d="M820 1491q304 0 528 -199q106 -94 170 -240t64 -322t-64 -323q-118 -274 -413 -388q-136 -52 -286 -52q-304 0 -528 199q-106 94 -170 240t-64 323q-1 177 63 323q118 273 414 387q136 52 286 52zM818 152q224 0 377 162t153 416t-153 415.5t-377 161.5t-376 -162
t-152 -416q0 -253 152 -415t376 -162zM442 738q0 190 110 314t294 124q146 0 242 -79t96 -167q0 -51 -29 -76t-57 -25q-70 0 -107 89q-31 74 -145 73q-84 1 -133 -67t-49 -184t50 -188t144 -72t135 79q27 49 50 71q25 22 63 22t62 -25t24 -66q0 -76 -98 -170t-244 -94
q-182 -1 -295 125t-113 316z" />
    <glyph glyph-name="ordfeminine" unicode="&#xaa;" horiz-adv-x="761" 
d="M23 1146q0 146 94 246t222 100t193 -73q27 72 97 72q110 0 110 -90v-510q-2 -91 -91.5 -91t-115.5 72q-70 -72 -180 -71q-141 -1 -235 99t-94 246zM244 1145q0 -59 38 -103t100 -44t99 44t37 104t-37 104t-99 44t-100 -45t-38 -104z" />
    <glyph glyph-name="guillemotleft" unicode="&#xab;" horiz-adv-x="1214" 
d="M123 568q0 108 82 171l172 125q115 84 162 32t47 -110t-56 -96l-182 -119l182 -120q56 -35 56 -93t-29 -91q-65 -72 -180 12l-172 124q-82 57 -82 165zM629 568q0 108 82 171l172 125q115 84 162 32t47 -110t-56 -96l-182 -119l182 -120q56 -35 56 -93t-29 -91
q-65 -72 -180 12l-172 124q-82 57 -82 165z" />
    <glyph glyph-name="logicalnot" unicode="&#xac;" horiz-adv-x="1228" 
d="M178 956h852q98 0 131 -34t33 -129v-416q0 -63 -35 -103t-94 -40t-94 39.5t-35 103.5v309h-758q-66 0 -104 36t-39 99q1 63 39 99t104 36z" />
    <glyph glyph-name="uni00AD" unicode="&#xad;" horiz-adv-x="872" 
d="M195 707h483q63 -1 99 -37t36 -98t-36 -99t-99 -37h-483q-63 0 -100 37q-36 37 -36 98t36 99q37 37 100 37z" />
    <glyph glyph-name="registered" unicode="&#xae;" horiz-adv-x="1638" 
d="M820 1491q304 0 528 -199q106 -94 170 -240t64 -322t-64 -323q-118 -274 -413 -388q-136 -52 -286 -52q-304 0 -528 199q-106 94 -170 240t-64 323q-1 177 63 323q118 273 414 387q136 52 286 52zM818 152q224 0 377 162t153 416t-153 415.5t-377 161.5t-376 -162
t-152 -416q0 -253 152 -415t376 -162zM516 426v621q0 43 27 67t65 25h256q147 1 221 -55t74 -176t-55 -180t-133 -64l143 -193q25 -33 25 -61t-22 -53q-23 -23 -61 -23t-59 14q-20 14 -47 53l-188 263h-62v-238q0 -44 -26 -68t-66 -24t-66 24t-26 68zM700 991v-180h154
q109 0 109 90t-109 90h-154z" />
    <glyph glyph-name="macron" unicode="&#xaf;" horiz-adv-x="454" 
d="M-18 1546h491q61 0 95 -35t34 -94t-34 -94t-95 -35h-491q-59 0 -95 35q-35 35 -34 94q0 59 34 94q36 35 95 35z" />
    <glyph glyph-name="degree" unicode="&#xb0;" horiz-adv-x="819" 
d="M264 1198q0 -59 44 -102t102 -43t102 43t43.5 102t-44 102t-101.5 43t-102 -43t-44 -102zM117 1198q0 123 84.5 208t208.5 85t208 -85t84 -208t-85 -208t-207 -85t-208 85q-85 85 -85 208z" />
    <glyph glyph-name="plusminus" unicode="&#xb1;" horiz-adv-x="1228" 
d="M479 881v135q0 66 35.5 104t99.5 38t100 -38.5t36 -103.5v-135h301q67 1 105 -35t38 -100t-39 -100t-104 -36h-301v-135q0 -67 -36 -105t-100 -38t-100 39t-35 104v135h-301q-66 0 -104 36t-39 99q1 63 39 99t104 37h301zM178 270h873q67 0 105 -36t38 -99t-39 -99
t-104 -36h-873q-66 0 -104 36t-39 99q1 63 39 99t104 36z" />
    <glyph glyph-name="twosuperior" unicode="&#xb2;" horiz-adv-x="739" 
d="M608 793q47 0 73 -28.5t26 -70.5t-26 -70t-73 -28h-450q-49 0 -87 25t-38 63t66 111q67 71 145 137t144 144t65 122q0 44 -29.5 64t-67.5 20t-62 -27t-30 -57t-33 -57t-77 -27t-78 29t-27 65q-1 117 91 200t230 83t227 -74t89 -192q0 -61 -36 -129t-70 -107t-106 -107
t-91 -89h225z" />
    <glyph glyph-name="threesuperior" unicode="&#xb3;" horiz-adv-x="763" 
d="M264 1056q0 46 30 68t64 26q95 10 95 79q0 53 -84 53q-51 0 -103 -44t-97 -44t-69 28t-24 64q0 94 96 150t213 56t203 -68q86 -66 86 -174t-115 -173q78 -31 119 -90t41 -133q1 -122 -95 -196t-234 -74t-242 70q-103 71 -103 165q0 41 28 68q29 27 69 27q76 -1 110 -61
t131 -60q41 1 72 29t30 63q0 83 -109 86q-42 -1 -77 19t-35 66z" />
    <glyph glyph-name="acute" unicode="&#xb4;" horiz-adv-x="454" 
d="M-6 1356q0 84 76 112l307 134q41 18 92 18t88 -41t37 -100q0 -84 -76 -113l-307 -133q-41 -19 -92 -19t-88 41t-37 101z" />
    <glyph glyph-name="mu" unicode="&#xb5;" 
d="M74 -289v1225q0 70 45 118t115 48t114 -48t45 -118v-494q0 -84 53 -130t129 -46t123 54t47 139v477q-1 70 45 118t116 48t114 -48t45 -118v-782q0 -70 -45 -118t-115 -48q-102 0 -149 102q-84 -102 -196 -102t-163 100h-4v-377q0 -70 -45.5 -118t-115.5 -48t-114 48
t-44 118z" />
    <glyph glyph-name="paragraph" unicode="&#xb6;" horiz-adv-x="1269" 
d="M477 -246v989q-221 1 -339 93t-118 258q0 204 132 284t372 80h520q56 0 90 -34t33 -89v-1581q-1 -55 -33 -89t-90 -34t-90 34t-32 89v1520h-199v-1520q0 -55 -33 -89t-90 -34t-90 34t-33 89z" />
    <glyph glyph-name="periodcentered" unicode="&#xb7;" horiz-adv-x="569" 
d="M286 391q-72 0 -126 52t-54 124.5t54 126.5t126 54t124.5 -54t52.5 -126t-52.5 -124.5t-124.5 -52.5z" />
    <glyph glyph-name="cedilla" unicode="&#xb8;" horiz-adv-x="454" 
d="M319 -104q72 0 118 -44t46 -126t-82 -132t-174 -49q-205 0 -204 97q-1 26 15 48t38 22t59 -16t62 -15.5t45 18.5t20 47t-19 43t-44 14h-41q-18 1 -32 15t-15 40q0 26 55 91l43 51h141l-80 -106q16 2 49 2z" />
    <glyph glyph-name="onesuperior" unicode="&#xb9;" horiz-adv-x="516" 
d="M147 700v582h-71q-47 0 -73 29t-26 69t26 70t73 29h188q49 0 83 -28t34 -85v-666q0 -48 -32 -82t-86 -34t-85 34t-31 82z" />
    <glyph glyph-name="ordmasculine" unicode="&#xba;" horiz-adv-x="737" 
d="M725 1148q0 -146 -100 -246t-258 -100q-159 0 -257 98t-98 246t98 246t258 98t258.5 -98t98.5 -244zM504 1144q0 60 -37 105t-98 45t-99 -45t-38 -104t38 -103q36 -44 98 -44t99 42q37 44 37 104z" />
    <glyph glyph-name="guillemotright" unicode="&#xbb;" horiz-adv-x="1214" 
d="M1092 574q0 -108 -82 -171l-172 -124q-60 -43 -106 -43t-75 32t-28 76q0 72 55 109l182 118l-182 121q-55 36 -55 94t28 90q65 72 181 -12l172 -125q82 -57 82 -165zM586 574q0 -108 -82 -171l-172 -124q-60 -43 -106 -43t-74 32t-29 90q0 58 55 95l182 118l-182 121
q-55 36 -55 94t29 90q65 72 180 -12l172 -125q82 -57 82 -165z" />
    <glyph glyph-name="onequarter" unicode="&#xbc;" horiz-adv-x="1935" 
d="M1780 369q96 1 96 -99q0 -46 -25 -72t-71 -26h-58v-88q0 -44 -30 -70t-86 -26t-86.5 26t-30.5 70v88h-354q-55 0 -82 25t-27 61t41 100l317 455q30 47 66 63t108 16t118 -40.5t46 -108.5v-374h58zM1489 369v260h-4l-174 -260h178zM1232 1491q46 0 81 -34t35 -80t-64 -152
l-661 -1149q-31 -55 -59 -82t-74 -27t-80 34t-34.5 80t62.5 152l662 1149q31 55 58 82q28 27 74 27zM229 700v582h-71q-47 0 -73 29t-26 69t26 70t73 29h188q49 0 83 -28t34 -85v-666q0 -48 -32 -82t-86 -34t-85 34t-31 82z" />
    <glyph glyph-name="onehalf" unicode="&#xbd;" horiz-adv-x="1935" 
d="M1256 1491q46 0 81 -34t35 -80t-63 -152l-662 -1149q-31 -55 -59 -82t-74 -27t-80 34t-34 80t63 152l661 1149q30 55 58 82t74 27zM256 700v582h-72q-46 0 -72 29t-26 69t26 70t72 29h189q49 0 83 -28t33 -85v-666q1 -48 -31 -82t-86 -34t-85 34t-31 82zM1596 602
q0 84 -68 84t-92 -27t-30 -57t-32 -57t-76 -27t-78 29t-28 65q0 117 92 200t230 83t226 -74t89 -192q0 -61 -36.5 -129t-70.5 -107t-106 -107t-90 -89h225q47 0 73 -28.5t26 -70.5t-26 -70t-73 -28h-451q-49 0 -87 25q-37 25 -37 63q0 70 210 248q78 66 144 144t66 122z" />
    <glyph glyph-name="threequarters" unicode="&#xbe;" horiz-adv-x="1935" 
d="M1342 1491q46 0 81 -34t35 -80t-63 -152l-662 -1149q-31 -55 -59 -82t-74 -27t-80 34t-34 80t63 152l661 1149q30 55 58 82t74 27zM500 885q0 83 -110 86q-42 -1 -77 19t-35 66t30 68t65 26q94 8 94 79q0 53 -84 53q-51 0 -103 -44t-96 -44t-70 28q-24 28 -24 64
q0 94 96 150t213 56t203 -68q86 -66 86 -174t-115 -173q78 -31 119 -90t41 -133q1 -122 -95 -196t-234 -74t-241 70t-104 165q0 41 28 68t69 27q75 -1 110 -61t131 -60q41 1 72 29t31 63zM1780 369q96 1 96 -99q0 -46 -25 -72t-71 -26h-58v-88q0 -44 -30 -70t-86 -26
t-86.5 26t-30.5 70v88h-354q-55 0 -82 25t-27 61t41 100l317 455q50 70 148 70t144 -41t46 -109v-364h58zM1489 369v260h-4l-174 -260h178z" />
    <glyph glyph-name="questiondown" unicode="&#xbf;" horiz-adv-x="1024" 
d="M707 518v-164q0 -78 -45 -100t-117 -35q-156 -31 -156 -156q1 -51 41 -92t100 -41q101 0 153 66q21 28 43 54q52 64 122 64t114 -45.5t44 -107.5q0 -162 -148 -262t-339 -100t-339 123q-147 124 -147 331q0 352 354 424v41q0 72 44 116t116 44t116 -44t44 -116zM725 945
q0 -73 -53 -126t-125 -53t-125 53t-53 126t53 125t125 52t125 -52t53 -125z" />
    <glyph glyph-name="Agrave" unicode="&#xc0;" horiz-adv-x="1290" 
d="M1292 128q0 -66 -44 -103t-116 -37t-110 40q-37 40 -64 122l-40 131h-545l-41 -131q-26 -82 -64 -122t-110 -40t-116 37t-44 103t49 200l320 862q29 80 46 119t50 89q61 93 181 93t182 -93q34 -50 52 -89t46 -119l319 -862q49 -134 49 -200zM819 588l-166 534h-4
l-178 -534h348zM879 1696q-1 -58 -37 -100t-88 -42t-92 19l-308 133q-76 29 -75 113q0 59 36 100q37 41 89 41t92 -18l307 -134q76 -29 76 -112z" />
    <glyph glyph-name="Aacute" unicode="&#xc1;" horiz-adv-x="1290" 
d="M1292 128q0 -66 -44 -103t-116 -37t-110 40q-37 40 -64 122l-40 131h-545l-41 -131q-26 -82 -64 -122t-110 -40t-116 37t-44 103t49 200l320 862q29 80 46 119t50 89q61 93 181 93t182 -93q34 -50 52 -89t46 -119l319 -862q49 -134 49 -200zM819 588l-166 534h-4
l-178 -534h348zM412 1696q0 84 75 112l308 134q41 18 92 18t88 -41t37 -100q0 -84 -76 -113l-307 -133q-41 -19 -92 -19t-88 41t-37 101z" />
    <glyph glyph-name="Acircumflex" unicode="&#xc2;" horiz-adv-x="1290" 
d="M1292 128q0 -66 -44 -103t-116 -37t-110 40q-37 40 -64 122l-40 131h-545l-41 -131q-26 -82 -64 -122t-110 -40t-116 37t-44 103t49 200l320 862q29 80 46 119t50 89q61 93 181 93t182 -93q34 -50 52 -89t46 -119l319 -862q49 -134 49 -200zM819 588l-166 534h-4
l-178 -534h348zM337 1554q-42 0 -75 36t-33 93t24 89t85 61l180 82q102 45 127 45t127 -45l180 -82q61 -29 85 -61t24 -89t-33 -93t-75 -36t-111 31l-197 90l-196 -90q-70 -31 -112 -31z" />
    <glyph glyph-name="Atilde" unicode="&#xc3;" horiz-adv-x="1290" 
d="M1292 128q0 -66 -44 -103t-116 -37t-110 40q-37 40 -64 122l-40 131h-545l-41 -131q-26 -82 -64 -122t-110 -40t-116 37t-44 103t49 200l320 862q29 80 46 119t50 89q61 93 181 93t182 -93q34 -50 52 -89t46 -119l319 -862q49 -134 49 -200zM819 588l-166 534h-4
l-178 -534h348zM208.5 1700q-0.5 70 61.5 140t144 70t211 -48q123 -50 161 -50t87 48t97 48t80 -36q32 -38 32 -108t-63 -140t-147 -70t-206 48t-160 48t-89 -48q-50 -48 -97 -48t-79 38t-32.5 108z" />
    <glyph glyph-name="Adieresis" unicode="&#xc4;" horiz-adv-x="1290" 
d="M1292 128q0 -66 -44 -103t-116 -37t-110 40q-37 40 -64 122l-40 131h-545l-41 -131q-26 -82 -64 -122t-110 -40t-116 37t-44 103t49 200l320 862q29 80 46 119t50 89q61 93 181 93t182 -93q34 -50 52 -89t46 -119l319 -862q49 -134 49 -200zM819 588l-166 534h-4
l-178 -534h348zM723.5 1758q-0.5 66 46.5 112q48 46 114 47q66 0 112 -47.5t46 -113.5t-47 -112t-113 -46t-112 47t-46.5 113zM408 1916.5q66 0.5 112 -47t46 -113.5t-46 -112t-112 -46t-113 47t-47 113t47 112t113 46.5z" />
    <glyph glyph-name="Aring" unicode="&#xc5;" horiz-adv-x="1290" 
d="M1292 128q0 -66 -44 -103t-116 -37t-110 40q-37 40 -64 122l-40 131h-545l-41 -131q-26 -82 -64 -122t-110 -40t-116 37t-44 103t49 200l320 862q29 80 46 119t50 89q61 93 181 93t182 -93q34 -50 52 -89t46 -119l319 -862q49 -134 49 -200zM819 588l-166 534h-4
l-178 -534h348zM442 1736q0 84 60 142.5t144 58.5t142 -59q60 -58 60 -142t-60 -144t-143 -60t-143 60t-60 144zM646 1642q36 0 64 28t27 65q1 37 -27 65t-65 28t-65 -28t-28 -65t30 -65q28 -28 64 -28z" />
    <glyph glyph-name="AE" unicode="&#xc6;" horiz-adv-x="1744" 
d="M1548 1458q78 0 122 -42t44 -112t-44 -112t-122 -41h-342v-264h314q78 0 122 -41.5t44 -113.5t-44 -112t-122 -40h-314v-273h357q77 1 121 -41t44 -112t-44 -112t-121 -42h-523q-68 0 -116 45t-50 121v115h-464l-64 -127q-31 -64 -48.5 -92t-57.5 -52t-100 -23t-101 45
t-41 116t45 149l596 1014q55 96 109 122t174 25h626zM874 588v559h-4l-295 -559h299z" />
    <glyph glyph-name="Ccedilla" unicode="&#xc7;" horiz-adv-x="1214" 
d="M725 -104q72 0 118 -44t46 -126t-82 -132t-174 -49q-205 0 -205 97q0 26 16 48t38 22t59 -16t61 -15.5t45 18.5q20 18 21 47q0 29 -20 43t-44 14h-41q-19 1 -33 15t-14 40t55 91l27 35q-260 49 -408 256q-147 207 -147 489q0 336 199 549t524 213q176 0 308 -56t132 -175
q0 -62 -41 -110t-88 -48t-139 35t-164 34q-188 0 -281 -128t-93 -312t90 -308t255 -124q119 0 208 34t133 34t80 -32t44 -62t8 -78t-44 -97q-45 -48 -117 -76q-137 -52 -297 -55q-21 0 -29 2l-55 -75q16 2 49 2z" />
    <glyph glyph-name="Egrave" unicode="&#xc8;" horiz-adv-x="948" 
d="M80 166v1126q0 76 49 121t117 45h508q78 0 122 -42t44 -112t-44 -112t-122 -41h-342v-264h313q78 0 122 -41.5t44 -113.5t-44 -112t-122 -40h-313v-273h354q78 1 122 -41t44 -112t-44 -112t-122 -42h-520q-68 0 -117 45t-49 121zM709 1696q-1 -58 -37 -100t-88 -42
t-92 19l-308 133q-76 29 -75 113q0 59 36 100q37 41 89 41t92 -18l307 -134q76 -29 76 -112z" />
    <glyph glyph-name="Eacute" unicode="&#xc9;" horiz-adv-x="948" 
d="M80 166v1126q0 76 49 121t117 45h508q78 0 122 -42t44 -112t-44 -112t-122 -41h-342v-264h313q78 0 122 -41.5t44 -113.5t-44 -112t-122 -40h-313v-273h354q78 1 122 -41t44 -112t-44 -112t-122 -42h-520q-68 0 -117 45t-49 121zM242 1696q0 84 75 112l308 134
q41 18 92 18t88 -41t37 -100q0 -84 -76 -113l-307 -133q-41 -19 -92 -19t-88 41t-37 101z" />
    <glyph glyph-name="Ecircumflex" unicode="&#xca;" horiz-adv-x="948" 
d="M80 166v1126q0 76 49 121t117 45h508q78 0 122 -42t44 -112t-44 -112t-122 -41h-342v-264h313q78 0 122 -41.5t44 -113.5t-44 -112t-122 -40h-313v-273h354q78 1 122 -41t44 -112t-44 -112t-122 -42h-520q-68 0 -117 45t-49 121zM167 1554q-42 0 -75 36t-33 93t24 89
t85 61l180 82q102 45 127 45t127 -45l180 -82q61 -29 85 -61t24 -89t-33 -93t-75 -36t-111 31l-197 90l-196 -90q-70 -31 -112 -31z" />
    <glyph glyph-name="Edieresis" unicode="&#xcb;" horiz-adv-x="948" 
d="M80 166v1126q0 76 49 121t117 45h508q78 0 122 -42t44 -112t-44 -112t-122 -41h-342v-264h313q78 0 122 -41.5t44 -113.5t-44 -112t-122 -40h-313v-273h354q78 1 122 -41t44 -112t-44 -112t-122 -42h-520q-68 0 -117 45t-49 121zM553.5 1758q-0.5 66 46.5 112
q48 46 114 47q66 0 112 -47.5t46 -113.5t-47 -112t-113 -46t-112 47t-46.5 113zM238 1916.5q66 0.5 112 -47t46 -113.5t-46 -112t-112 -46t-113 47t-47 113t47 112t113 46.5z" />
    <glyph glyph-name="Igrave" unicode="&#xcc;" horiz-adv-x="491" 
d="M412 1294v-1130q0 -86 -46 -131t-120 -45t-120 45t-46 131v1130q0 86 46 131t120 45t120 -45t46 -131zM479 1696q0 -58 -37 -100t-88 -42t-92 19l-307 133q-76 29 -76 113q0 59 37 100t88 41t92 -18l307 -134q76 -29 76 -112z" />
    <glyph glyph-name="Iacute" unicode="&#xcd;" horiz-adv-x="491" 
d="M412 1294v-1130q0 -86 -46 -131t-120 -45t-120 45t-46 131v1130q0 86 46 131t120 45t120 -45t46 -131zM12 1696q0 84 76 112l307 134q41 18 92 18t88 -41t37 -100q1 -84 -75 -113l-308 -133q-41 -19 -92 -19t-88 41t-37 101z" />
    <glyph glyph-name="Icircumflex" unicode="&#xce;" horiz-adv-x="491" 
d="M412 1294v-1130q0 -86 -46 -131t-120 -45t-120 45t-46 131v1130q0 86 46 131t120 45t120 -45t46 -131zM-62 1554q-42 0 -75 36t-33 93t24 89t85 61l180 82q102 45 127 45t127 -45l180 -82q61 -29 85 -61t24 -89t-33 -93t-75 -36t-112 31l-196 90l-197 -90
q-69 -31 -111 -31z" />
    <glyph glyph-name="Idieresis" unicode="&#xcf;" horiz-adv-x="491" 
d="M412 1294v-1130q0 -86 -46 -131t-120 -45t-120 45t-46 131v1130q0 86 46 131t120 45t120 -45t46 -131zM324 1758q0 66 46 112t112 47q66 0 113.5 -47.5t47.5 -113.5t-47.5 -112t-113.5 -46t-112 47t-46 113zM8 1916.5q66 0.5 113 -47t47 -113.5t-47 -112t-113 -46
t-112 47t-48 113q0 66 47 112t113 46.5z" />
    <glyph glyph-name="Eth" unicode="&#xd0;" horiz-adv-x="1366" 
d="M80 166v444h-55q-59 0 -95 35q-35 35 -34 94q0 59 34 95q35 35 95 34h55v424q0 76 49 121t117 45h397q311 0 495 -211t185 -508q0 -343 -198 -541t-482 -198h-397q-68 0 -117 45t-49 121zM412 1151v-283h168q61 0 95 -34t34 -94t-34 -95t-95 -35h-168v-303h176
q186 0 282 117t96 310t-94 305t-270 112h-190z" />
    <glyph glyph-name="Ntilde" unicode="&#xd1;" horiz-adv-x="1441" 
d="M80 164v1130q0 86 46 131t114 45t106 -32t129 -146l551 -690h4v692q0 86 46 131t120 45t120 -45t46 -131v-1130q0 -86 -46 -131t-114 -45t-108 32q-39 32 -127 146l-551 690h-4v-692q0 -86 -46 -131t-120 -45t-120 45t-46 131zM284.5 1700q-0.5 70 61.5 140t144 70
t208 -50q126 -48 164 -48t87.5 48t96.5 48t79 -36q32 -38 31.5 -108t-62.5 -140t-146 -70t-207 48t-161 48t-87 -48t-97 -48t-80 38q-31 38 -31.5 108z" />
    <glyph glyph-name="Ograve" unicode="&#xd2;" horiz-adv-x="1519" 
d="M760 1491q326 0 522 -208t196 -554t-196 -554t-522 -208t-522 208t-195 554q-1 346 195 554t522 208zM760 1184q-180 0 -270 -132t-90 -322t90 -323t270 -133t270 132t90 323t-90 323t-270 132zM868 1554q-51 0 -92 19l-307 133q-76 29 -76 113q0 59 37 100t88 41t92 -18
l308 -134q76 -29 75 -112q0 -58 -37 -100t-88 -42z" />
    <glyph glyph-name="Oacute" unicode="&#xd3;" horiz-adv-x="1519" 
d="M760 1491q326 0 522 -208t196 -554t-196 -554t-522 -208t-522 208t-195 554q-1 346 195 554t522 208zM760 1184q-180 0 -270 -132t-90 -322t90 -323t270 -133t270 132t90 323t-90 323t-270 132zM526 1696q0 84 76 112l307 134q41 18 92 18t89 -41t36 -100q1 -84 -75 -113
l-308 -133q-41 -19 -92 -19t-88 41t-37 101z" />
    <glyph glyph-name="Ocircumflex" unicode="&#xd4;" horiz-adv-x="1519" 
d="M760 1491q326 0 522 -208t196 -554t-196 -554t-522 -208t-522 208t-195 554q-1 346 195 554t522 208zM760 1184q-180 0 -270 -132t-90 -322t90 -323t270 -133t270 132t90 323t-90 323t-270 132zM452 1554q-42 0 -75 36t-33 93t24 89t85 61l180 82q102 45 127 45t127 -45
l180 -82q61 -29 85 -61t24 -89t-33 -93t-75 -36t-112 31l-196 90l-197 -90q-69 -31 -111 -31z" />
    <glyph glyph-name="Otilde" unicode="&#xd5;" horiz-adv-x="1519" 
d="M760 1491q326 0 522 -208t196 -554t-196 -554t-522 -208t-522 208t-195 554q-1 346 195 554t522 208zM760 1184q-180 0 -270 -132t-90 -322t90 -323t270 -133t270 132t90 323t-90 323t-270 132zM324 1700q0 70 62 140t143 70t210 -48q123 -50 161 -50t88 48t97 48t79 -36
q32 -38 32 -108t-62 -140t-146 -70t-207 48t-161 48t-88 -48t-98 -48t-79 38t-31 108z" />
    <glyph glyph-name="Odieresis" unicode="&#xd6;" horiz-adv-x="1519" 
d="M760 1491q326 0 522 -208t196 -554t-196 -554t-522 -208t-522 208t-195 554q-1 346 195 554t522 208zM760 1184q-180 0 -270 -132t-90 -322t90 -323t270 -133t270 132t90 323t-90 323t-270 132zM838 1758q0 66 46 112t112 47q66 0 113.5 -47.5t47.5 -113.5t-47.5 -112
t-113.5 -46t-112 47t-46 113zM522 1916.5q66 0.5 113 -47t47 -113.5t-47 -112t-113 -46t-112 47t-48 113q0 66 47 112t113 46.5z" />
    <glyph glyph-name="multiply" unicode="&#xd7;" horiz-adv-x="1228" 
d="M978 1085q40 0 91 -46t51 -93t-39 -86l-282 -280l282 -283q39 -39 39 -84t-47 -92t-92 -47t-84 39l-283 282l-282 -282q-39 -39 -82 -39t-94 47q-92 92 -11 176l283 283l-283 280q-37 37 -37 83t48 94t92 48q43 0 84 -41l282 -280l283 280q41 41 81 41z" />
    <glyph glyph-name="Oslash" unicode="&#xd8;" horiz-adv-x="1519" 
d="M760 1184q-180 0 -270 -132t-91 -323q0 -121 37 -215l539 596q-86 74 -215 74zM760 274q180 0 270 132t90 323q0 121 -37 219l-540 -598q86 -76 217 -76zM43 729q0 346 196 554t521 208q260 0 438 -135l127 141q45 51 86 51t69 -24t28 -66t-50 -96l-127 -139
q145 -201 146 -494q0 -346 -196 -554t-521 -208q-262 0 -441 137l-124 -137q-45 -51 -86 -51t-69 24t-28 66t49 96l125 138q-143 197 -143 489z" />
    <glyph glyph-name="Ugrave" unicode="&#xd9;" horiz-adv-x="1402" 
d="M401 586q0 -141 85 -220t214 -79t215 79t86 220v708q1 86 47 131t120 45t120 -45t45 -131v-708q0 -285 -175.5 -452t-457.5 -167t-456 167t-174 452v708q0 86 45 131t121 45t120 -45t45 -131v-708zM936 1696q0 -58 -37 -100t-88 -42t-92 19l-307 133q-76 29 -76 113
q0 59 37 100t88 41t92 -18l307 -134q76 -29 76 -112z" />
    <glyph glyph-name="Uacute" unicode="&#xda;" horiz-adv-x="1402" 
d="M401 586q0 -141 85 -220t214 -79t215 79t86 220v708q1 86 47 131t120 45t120 -45t45 -131v-708q0 -285 -175.5 -452t-457.5 -167t-456 167t-174 452v708q0 86 45 131t121 45t120 -45t45 -131v-708zM469 1696q0 84 76 112l307 134q41 18 92 18t88 -41t37 -100
q0 -84 -76 -113l-307 -133q-41 -19 -92 -19t-88 41t-37 101z" />
    <glyph glyph-name="Ucircumflex" unicode="&#xdb;" horiz-adv-x="1402" 
d="M401 586q0 -141 85 -220t214 -79t215 79t86 220v708q1 86 47 131t120 45t120 -45t45 -131v-708q0 -285 -175.5 -452t-457.5 -167t-456 167t-174 452v708q0 86 45 131t121 45t120 -45t45 -131v-708zM394 1554q-42 0 -75 36t-33 93t24 89t85 61l180 82q102 45 127 45
t127 -45l181 -82q60 -29 84 -61t24 -89t-33 -93t-75 -36t-111 31l-197 90l-196 -90q-70 -31 -112 -31z" />
    <glyph glyph-name="Udieresis" unicode="&#xdc;" horiz-adv-x="1402" 
d="M401 586q0 -141 85 -220t214 -79t215 79t86 220v708q1 86 47 131t120 45t120 -45t45 -131v-708q0 -285 -175.5 -452t-457.5 -167t-456 167t-174 452v708q0 86 45 131t121 45t120 -45t45 -131v-708zM940 1916.5q66 0.5 113 -47t47 -113.5t-47 -112t-113 -46t-113 47
t-47 113t47 112t113 46.5zM465 1916.5q66 0.5 113 -47t47 -113.5t-47 -112t-113 -46t-113 47t-47 113t47 112t113 46.5z" />
    <glyph glyph-name="Yacute" unicode="&#xdd;" horiz-adv-x="1101" 
d="M385 164v520l-287 385q-113 158 -125 191t-12 63q0 66 50 107q51 40 109 40t94 -20t51 -38t40 -54l246 -350l246 350q25 36 40 54t51 38t94 20t108 -40t51 -97q0 -57 -24 -98t-113 -166l-287 -385v-520q0 -86 -45 -131t-121 -45t-121 45t-45 131zM317 1696q0 84 76 112
l307 134q42 18 92 18t88 -41t38 -100q0 -84 -76 -113l-307 -133q-41 -19 -92 -19t-89 41q-37 41 -37 101z" />
    <glyph glyph-name="Thorn" unicode="&#xde;" horiz-adv-x="1175" 
d="M412 946v-397h178q100 -1 160 57t59.5 148t-59.5 141t-160 51h-178zM80 164v1130q0 88 45 132t121 44t121 -44t45 -132v-53h241q207 0 353 -129.5t146 -355.5t-129.5 -364t-358.5 -138h-252v-90q0 -88 -45 -132t-121 -44t-121 44t-45 132z" />
    <glyph glyph-name="germandbls" unicode="&#xdf;" horiz-adv-x="1175" 
d="M74 154v938q0 215 138 350t347 135t337 -122t128 -316q0 -80 -35 -153t-96 -116q121 -45 182 -151t62 -244q1 -215 -145 -361t-333 -147q-82 0 -132 40t-50 112q0 133 164 157q70 10 117 74t47 135q0 172 -168 203q-92 16 -133 50t-41 100q0 112 85 141q36 12 72 23
q85 26 85 133q0 59 -39 97t-103 38q-170 0 -170 -242v-874q0 -70 -45.5 -118t-115.5 -48t-114 48t-44 118z" />
    <glyph glyph-name="agrave" unicode="&#xe0;" horiz-adv-x="1175" 
d="M1108 936v-782q0 -70 -45 -118t-115 -48q-102 0 -149 102q-100 -123 -275 -123q-209 0 -351 167.5t-142 409.5t142 410t351 168q174 0 275 -123q47 102 149 103q70 0 115 -48t45 -118zM350 544q0 -114 58 -192t160 -78t162 78q58 78 58 193t-58 193t-160 78t-162 -80
q-58 -78 -58 -192zM821 1356q0 -58 -37 -100t-88 -42t-92 19l-307 133q-76 29 -76 113q0 59 37 100t88 41t92 -18l307 -134q76 -29 76 -112z" />
    <glyph glyph-name="aacute" unicode="&#xe1;" horiz-adv-x="1175" 
d="M1108 936v-782q0 -70 -45 -118t-115 -48q-102 0 -149 102q-100 -123 -275 -123q-209 0 -351 167.5t-142 409.5t142 410t351 168q174 0 275 -123q47 102 149 103q70 0 115 -48t45 -118zM350 544q0 -114 58 -192t160 -78t162 78q58 78 58 193t-58 193t-160 78t-162 -80
q-58 -78 -58 -192zM354 1356q0 84 76 112l307 134q41 18 92 18t89 -41t36 -100q1 -84 -75 -113l-308 -133q-41 -19 -92 -19t-88 41t-37 101z" />
    <glyph glyph-name="acircumflex" unicode="&#xe2;" horiz-adv-x="1175" 
d="M1108 936v-782q0 -70 -45 -118t-115 -48q-102 0 -149 102q-100 -123 -275 -123q-209 0 -351 167.5t-142 409.5t142 410t351 168q174 0 275 -123q47 102 149 103q70 0 115 -48t45 -118zM350 544q0 -114 58 -192t160 -78t162 78q58 78 58 193t-58 193t-160 78t-162 -80
q-58 -78 -58 -192zM280 1214q-42 0 -75 36t-33 93t24 89t85 61l180 82q102 45 127 45t127 -45l180 -82q61 -29 85 -61t24 -89t-33 -93t-75 -36t-112 31l-196 90l-197 -90q-69 -31 -111 -31z" />
    <glyph glyph-name="atilde" unicode="&#xe3;" horiz-adv-x="1175" 
d="M1108 936v-782q0 -70 -45 -118t-115 -48q-102 0 -149 102q-100 -123 -275 -123q-209 0 -351 167.5t-142 409.5t142 410t351 168q174 0 275 -123q47 102 149 103q70 0 115 -48t45 -118zM350 544q0 -114 58 -192t160 -78t162 78q58 78 58 193t-58 193t-160 78t-162 -80
q-58 -78 -58 -192zM152 1360q0 70 62 140t143 70t210 -48q123 -49 161 -49t88 48t97 48.5t79 -37.5t32 -108t-62 -140t-146 -70t-207 48t-161 48t-88 -48t-98 -48t-79 38t-31 108z" />
    <glyph glyph-name="adieresis" unicode="&#xe4;" horiz-adv-x="1175" 
d="M1108 936v-782q0 -70 -45 -118t-115 -48q-102 0 -149 102q-100 -123 -275 -123q-209 0 -351 167.5t-142 409.5t142 410t351 168q174 0 275 -123q47 102 149 103q70 0 115 -48t45 -118zM350 544q0 -114 58 -192t160 -78t162 78q58 78 58 193t-58 193t-160 78t-162 -80
q-58 -78 -58 -192zM666 1418q0 66 46 112t112 47q66 0 113.5 -47.5t47.5 -113.5t-47.5 -112t-113.5 -46t-112 47t-46 113zM350 1576.5q66 0.5 113 -47t47 -113.5t-47 -112t-113 -46t-112 47t-48 113q0 66 47 112t113 46.5z" />
    <glyph glyph-name="aring" unicode="&#xe5;" horiz-adv-x="1175" 
d="M1108 936v-782q0 -70 -45 -118t-115 -48q-102 0 -149 102q-100 -123 -275 -123q-209 0 -351 167.5t-142 409.5t142 410t351 168q174 0 275 -123q47 102 149 103q70 0 115 -48t45 -118zM350 544q0 -114 58 -192t160 -78t162 78q58 78 58 193t-58 193t-160 78t-162 -80
q-58 -78 -58 -192zM588 1568q84 0 143 -59t59 -143t-59 -143t-143 -59t-144 59t-59 143q0 84 59 143q60 59 144 59zM496 1366q0 -36 28 -64t64 -28t64 28t28 64t-28 64t-64 28t-65 -27q-27 -29 -27 -65z" />
    <glyph glyph-name="ae" unicode="&#xe6;" horiz-adv-x="1896" 
d="M1108 659h438q0 63 -62 128t-156 65t-157 -65t-63 -128zM1710 440h-602q0 -62 71 -120t185 -58t220 50t146.5 50t79.5 -38t39 -99q-1 -111 -155 -185t-344 -74t-299 75q-39 -74 -119 -74q-133 0 -133 123h-4q-94 -123 -271 -123q-209 0 -351 167.5t-142 409.5t142 410
t351 168q176 0 271 -123h4q0 123 137 123q84 0 119 -73q100 74 293 73q227 0 372 -162t146 -380q0 -80 -37 -110t-119 -30zM350 544q0 -114 58 -192t160 -78t162 78q58 78 58 193t-58 193t-160 78t-162 -80q-58 -78 -58 -192z" />
    <glyph glyph-name="ccedilla" unicode="&#xe7;" horiz-adv-x="948" 
d="M567 -104q72 0 118 -44t46 -126t-82 -132t-174 -49q-205 0 -205 97q0 26 16 48q27 37 97 6q35 -15 61 -15t46 18t20 47t-20 43t-44 14h-40q-18 1 -32 15t-16 40q0 26 56 91l26 33q-186 46 -298 200t-111 381t151 393t387 166q131 0 255 -46t124 -166q0 -62 -38 -105
t-83 -43t-108 26t-131 27q-118 -1 -178 -77t-60 -192t58 -194t150 -78t169.5 28t89.5 28q53 0 92 -44t39 -108t-70 -116q-120 -90 -305 -95l-55 -73q16 2 49 2z" />
    <glyph glyph-name="egrave" unicode="&#xe8;" 
d="M952 440h-577q0 -66 59 -122t173 -56t219 50t146 50t81 -38q39 -39 39 -99q0 -111 -155 -185t-347 -73q-252 0 -406 165.5t-154 407.5t160 412t394 170t379 -162t145 -380q0 -80 -37 -110t-119 -30zM788 659q0 61 -60 127t-146 66t-146 -66t-61 -127h413zM803 1356
q0 -58 -37 -100t-88 -42t-92 19l-307 133q-76 29 -76 113q0 59 37 100t88 41t92 -18l307 -134q76 -29 76 -112z" />
    <glyph glyph-name="eacute" unicode="&#xe9;" 
d="M952 440h-577q0 -66 59 -122t173 -56t219 50t146 50t81 -38q39 -39 39 -99q0 -111 -155 -185t-347 -73q-252 0 -406 165.5t-154 407.5t160 412t394 170t379 -162t145 -380q0 -80 -37 -110t-119 -30zM788 659q0 61 -60 127t-146 66t-146 -66t-61 -127h413zM336 1356
q0 84 76 112l307 134q41 18 92 18t88 -41t37 -100q0 -84 -76 -113l-307 -133q-41 -19 -92 -19t-88 41t-37 101z" />
    <glyph glyph-name="ecircumflex" unicode="&#xea;" 
d="M952 440h-577q0 -66 59 -122t173 -56t219 50t146 50t81 -38q39 -39 39 -99q0 -111 -155 -185t-347 -73q-252 0 -406 165.5t-154 407.5t160 412t394 170t379 -162t145 -380q0 -80 -37 -110t-119 -30zM788 659q0 61 -60 127t-146 66t-146 -66t-61 -127h413zM261 1214
q-42 0 -75 36q-32 36 -32 93t23 90q24 32 85 60l180 82q102 45 127 45t127 -45l181 -82q61 -29 85 -61t24 -89t-33 -93t-75 -36t-112 31l-197 90l-196 -90q-70 -31 -112 -31z" />
    <glyph glyph-name="edieresis" unicode="&#xeb;" 
d="M952 440h-577q0 -66 59 -122t173 -56t219 50t146 50t81 -38q39 -39 39 -99q0 -111 -155 -185t-347 -73q-252 0 -406 165.5t-154 407.5t160 412t394 170t379 -162t145 -380q0 -80 -37 -110t-119 -30zM788 659q0 61 -60 127t-146 66t-146 -66t-61 -127h413zM807 1576.5
q66 0.5 113 -47t47 -113.5t-47 -112t-113 -46t-113 47t-47 113t47 112t113 46.5zM332 1576.5q66 0.5 112 -47t47 -113.5t-47 -112t-113 -46t-112 47t-47 113t47 112t113 46.5z" />
    <glyph glyph-name="igrave" unicode="&#xec;" horiz-adv-x="454" 
d="M68 154v782q0 70 45 118t115 48t114 -48t45 -118v-782q0 -70 -45.5 -118t-115.5 -48t-114 48t-44 118zM461 1356q0 -58 -37 -100t-88 -42t-92 19l-307 133q-76 29 -76 113q0 59 37 100t88 41t92 -18l307 -134q76 -29 76 -112z" />
    <glyph glyph-name="iacute" unicode="&#xed;" horiz-adv-x="454" 
d="M68 154v782q0 70 45 118t115 48t114 -48t45 -118v-782q0 -70 -45.5 -118t-115.5 -48t-114 48t-44 118zM-6 1356q0 84 76 112l307 134q41 18 92 18t88 -41t37 -100q0 -84 -76 -113l-307 -133q-41 -19 -92 -19t-88 41t-37 101z" />
    <glyph glyph-name="icircumflex" unicode="&#xee;" horiz-adv-x="454" 
d="M68 154v782q0 70 45 118t115 48t114 -48t45 -118v-782q0 -70 -45.5 -118t-115.5 -48t-114 48t-44 118zM-81 1214q-42 0 -75 36q-32 36 -32 93t23 90q24 32 85 60l180 82q102 45 127 45t127 -45l181 -82q61 -29 85 -61t24 -89t-33 -93t-75 -36t-112 31l-197 90l-196 -90
q-70 -31 -112 -31z" />
    <glyph glyph-name="idieresis" unicode="&#xef;" horiz-adv-x="454" 
d="M68 154v782q0 70 45 118t115 48t114 -48t45 -118v-782q0 -70 -45.5 -118t-115.5 -48t-114 48t-44 118zM465 1576.5q66 0.5 113 -47t47 -113.5t-47 -112t-113 -46t-113 47t-47 113t47 112t113 46.5zM-10 1576.5q66 0.5 112 -47t47 -113.5t-47 -112t-113 -46t-112 47
t-47 113t47 112t113 46.5z" />
    <glyph glyph-name="eth" unicode="&#xf0;" 
d="M256 1100q-34 0 -54 26t-20 58t16 47.5t54 34.5l125 61q-86 47 -121 77t-35 77t47 82t125 34q160 0 312 -112l167 82q80 41 112 6t32 -75t-34 -59q-11 -7 -34 -18l-104 -51q264 -229 264 -760q0 -269 -127 -450q-63 -90 -169 -142t-243 -51q-233 -1 -385 153t-153 393
q0 239 140 391t361 153q154 0 213 -66l5 4q-34 65 -90 133t-115 97l-189 -92q-66 -33 -100 -33zM568.5 750q-94.5 0 -156.5 -72t-62 -166t62 -166t156 -72t158 72q62 72 62 166t-62 166q-63 72 -157.5 72z" />
    <glyph glyph-name="ntilde" unicode="&#xf1;" 
d="M74 154v782q0 70 45 118t114 48q115 0 160 -103q79 123 265 123t296 -94t111 -283v-591q0 -70 -45.5 -118t-115.5 -48t-114 48t-45 118v505q0 85 -47 139t-129 54t-129 -54t-47 -139v-505q0 -70 -45.5 -118t-115.5 -48t-114 48t-44 118zM710 1473q38 0 88 48t97 48.5
t79 -37.5t32 -108t-62 -140t-146 -70t-207.5 48t-161.5 48t-88 -48t-97 -48t-78.5 38t-31.5 108t62 140t143 70t210 -48q123 -49 161 -49z" />
    <glyph glyph-name="ograve" unicode="&#xf2;" 
d="M570 1122q238 0 388 -166t150 -412t-151 -412t-389 -165.5t-388 166t-150 411.5t151 412t389 166zM350 544q0 -114 58 -192t160 -78t162 78q58 78 58 193t-58 193t-160 78t-162 -80q-58 -78 -58 -192zM803 1356q0 -58 -37 -100t-88 -42t-92 19l-307 133q-76 29 -76 113
q0 59 37 100t88 41t92 -18l307 -134q76 -29 76 -112z" />
    <glyph glyph-name="oacute" unicode="&#xf3;" 
d="M570 1122q238 0 388 -166t150 -412t-151 -412t-389 -165.5t-388 166t-150 411.5t151 412t389 166zM350 544q0 -114 58 -192t160 -78t162 78q58 78 58 193t-58 193t-160 78t-162 -80q-58 -78 -58 -192zM336 1356q0 84 76 112l307 134q41 18 92 18t88 -41t37 -100
q0 -84 -76 -113l-307 -133q-41 -19 -92 -19t-88 41t-37 101z" />
    <glyph glyph-name="ocircumflex" unicode="&#xf4;" 
d="M570 1122q238 0 388 -166t150 -412t-151 -412t-389 -165.5t-388 166t-150 411.5t151 412t389 166zM350 544q0 -114 58 -192t160 -78t162 78q58 78 58 193t-58 193t-160 78t-162 -80q-58 -78 -58 -192zM261 1214q-42 0 -75 36q-32 36 -32 93t23 90q24 32 85 60l180 82
q102 45 127 45t127 -45l181 -82q61 -29 85 -61t24 -89t-33 -93t-75 -36t-112 31l-197 90l-196 -90q-70 -31 -112 -31z" />
    <glyph glyph-name="otilde" unicode="&#xf5;" 
d="M570 1122q238 0 388 -166t150 -412t-151 -412t-389 -165.5t-388 166t-150 411.5t151 412t389 166zM350 544q0 -114 58 -192t160 -78t162 78q58 78 58 193t-58 193t-160 78t-162 -80q-58 -78 -58 -192zM710 1473q38 0 88 48t97 48.5t79 -37.5t32 -108t-62 -140t-146 -70
t-207.5 48t-161.5 48t-88 -48t-97 -48t-78.5 38t-31.5 108t62 140t143 70t210 -48q123 -49 161 -49z" />
    <glyph glyph-name="odieresis" unicode="&#xf6;" 
d="M570 1122q238 0 388 -166t150 -412t-151 -412t-389 -165.5t-388 166t-150 411.5t151 412t389 166zM350 544q0 -114 58 -192t160 -78t162 78q58 78 58 193t-58 193t-160 78t-162 -80q-58 -78 -58 -192zM807 1576.5q66 0.5 113 -47t47 -113.5t-47 -112t-113 -46t-113 47
t-47 113t47 112t113 46.5zM332 1576.5q66 0.5 112 -47t47 -113.5t-47 -112t-113 -46t-112 47t-47 113t47 112t113 46.5z" />
    <glyph glyph-name="divide" unicode="&#xf7;" horiz-adv-x="1228" 
d="M178 715h873q67 0 105 -35.5t38 -99.5t-39 -100t-104 -36h-873q-66 0 -104 36t-39 100q1 64 39 100t104 35zM614 1204q78 0 134 -57t56 -133t-56 -133t-134 -57t-134 57t-56 133t56 133t134 57zM614 336q78 0 134 -57t56 -133t-55 -134q-57 -57 -135 -57t-134 56.5
t-56 132.5t56 134t134 58z" />
    <glyph glyph-name="oslash" unicode="&#xf8;" 
d="M569 815q-102 0 -160 -78t-59 -192q1 -58 15 -103l321 336q-49 37 -117 37zM569 274q102 0 161 78q58 78 58 193q0 59 -14 100l-319 -336q51 -35 114 -35zM569 1122q195 0 334 -114l74 75q41 43 59 57t46 14t50 -22t22 -58t-32 -66l-112 -119q98 -150 98 -344
q0 -246 -151 -412t-388 -166q-193 0 -333 115l-74 -76q-42 -43 -60 -56.5t-46 -13.5t-50 22t-21 58q0 36 31 66l115 119q-100 147 -100 344q1 245 151 411t387 166z" />
    <glyph glyph-name="ugrave" unicode="&#xf9;" 
d="M1065 936v-543q1 -209 -139 -317t-356 -108t-356 108.5t-140 316.5v543q0 70 45 118t115 48t114 -48t45 -118v-498q0 -84 53 -130t123 -46t123 46t53 130v498q-1 70 45 118t116 48t114 -48t45 -118zM803 1356q0 -58 -37 -100t-88 -42t-92 19l-307 133q-76 29 -76 113
q0 59 37 100t88 41t92 -18l307 -134q76 -29 76 -112z" />
    <glyph glyph-name="uacute" unicode="&#xfa;" 
d="M1065 936v-543q1 -209 -139 -317t-356 -108t-356 108.5t-140 316.5v543q0 70 45 118t115 48t114 -48t45 -118v-498q0 -84 53 -130t123 -46t123 46t53 130v498q-1 70 45 118t116 48t114 -48t45 -118zM336 1356q0 84 76 112l307 134q41 18 92 18t88 -41t37 -100
q0 -84 -76 -113l-307 -133q-41 -19 -92 -19t-88 41t-37 101z" />
    <glyph glyph-name="ucircumflex" unicode="&#xfb;" 
d="M1065 936v-543q1 -209 -139 -317t-356 -108t-356 108.5t-140 316.5v543q0 70 45 118t115 48t114 -48t45 -118v-498q0 -84 53 -130t123 -46t123 46t53 130v498q-1 70 45 118t116 48t114 -48t45 -118zM261 1214q-42 0 -75 36q-32 36 -32 93t23 90q24 32 85 60l180 82
q102 45 127 45t127 -45l181 -82q61 -29 85 -61t24 -89t-33 -93t-75 -36t-112 31l-197 90l-196 -90q-70 -31 -112 -31z" />
    <glyph glyph-name="udieresis" unicode="&#xfc;" 
d="M1065 936v-543q1 -209 -139 -317t-356 -108t-356 108.5t-140 316.5v543q0 70 45 118t115 48t114 -48t45 -118v-498q0 -84 53 -130t123 -46t123 46t53 130v498q-1 70 45 118t116 48t114 -48t45 -118zM807 1576.5q66 0.5 113 -47t47 -113.5t-47 -112t-113 -46t-113 47
t-47 113t47 112t113 46.5zM332 1576.5q66 0.5 112 -47t47 -113.5t-47 -112t-113 -46t-112 47t-47 113t47 112t113 46.5z" />
    <glyph glyph-name="yacute" unicode="&#xfd;" horiz-adv-x="1024" 
d="M0 966q0 54 46 95t110 41q117 0 163 -121l189 -487l178 434q36 86 74 130t106 44t113 -44t45 -106t-39 -151l-473 -1104q-52 -124 -106 -141q-29 -10 -68 -11q-78 -1 -118 47t-40 100t53 173l107 239l-272 650q-68 158 -68 212zM754 1620q50 0 88 -41t37 -100
q0 -84 -76 -113l-307 -133q-41 -19 -92 -19t-89 41q-37 41 -36 101q0 84 75 112l308 134q42 18 92 18z" />
    <glyph glyph-name="thorn" unicode="&#xfe;" horiz-adv-x="1175" 
d="M68 -295v1712q0 76 42 118t118 42t118 -42t41 -118v-385q111 90 264 90q209 0 351 -168t142 -410t-142 -410t-351 -167q-154 0 -264 90v-352q0 -76 -41.5 -118t-117.5 -42t-118 42t-42 118zM606 274q102 0 161 78q58 78 58 193t-58 193q-59 78 -161 78t-160 -80
q-58 -78 -58 -192t58 -192t160 -78z" />
    <glyph glyph-name="ydieresis" unicode="&#xff;" horiz-adv-x="1024" 
d="M0 966q0 54 46 95t110 41q117 0 163 -121l189 -487l178 434q36 86 74 130t106 44t113 -44t45 -106t-39 -151l-473 -1104q-52 -124 -106 -141q-29 -10 -68 -11q-78 -1 -118 47t-40 100t53 173l107 239l-272 650q-68 158 -68 212zM750 1576.5q66 0.5 112 -47t46 -113.5
t-46 -112t-112 -46t-113 47t-47 113t47 112t113 46.5zM274 1576.5q66 0.5 113 -47t47 -113.5t-47 -112t-113 -46t-112 47t-47 113q1 66 47 112t112 46.5z" />
    <glyph glyph-name="dotlessi" unicode="&#x131;" horiz-adv-x="454" 
d="M68 154v782q0 70 45 118t115 48t114 -48t45 -118v-782q0 -70 -45.5 -118t-115.5 -48t-114 48t-44 118z" />
    <glyph glyph-name="Lslash" unicode="&#x141;" horiz-adv-x="909" 
d="M80 166v311q-72 -51 -108 -51t-60 31t-23.5 85t86.5 115l105 76v561q0 86 46 131t120 45t120 -45t46 -131v-319l149 108q83 59 119 59t60 -30t24 -84.5t-86 -116.5l-266 -194v-410h356q78 1 122 -41t44 -112t-44 -112t-122 -42h-522q-68 0 -117 45t-49 121z" />
    <glyph glyph-name="lslash" unicode="&#x142;" horiz-adv-x="454" 
d="M582 1064q0 -42 -43 -85l-152 -152v-673q0 -70 -45.5 -118t-115.5 -48t-114 48t-44 118v352l-11 -10q-95 -95 -157 -20q-26 32 -27 74q0 42 43 85l152 151v625q0 70 45 118t115 48t114 -48t45 -118v-303q105 105 150 51.5t45 -95.5z" />
    <glyph glyph-name="OE" unicode="&#x152;" horiz-adv-x="1972" 
d="M1440 1151v-264h313q78 0 122 -41.5t44 -113.5t-44 -112t-122 -40h-313v-273h350q78 1 122 -41t44 -112t-44 -112t-122 -42h-496q-133 0 -161 94q-152 -127 -373 -127q-328 0 -522 208t-195 554q0 346 195 554t522 208q106 -1 185 -21t110 -38t86 -60q8 26 17 42t39 30
t77 14h508q78 0 122 -42t44 -112t-44 -112t-122 -41h-342zM760 1184q-182 0 -272 -127t-90 -328t89.5 -328t272.5 -127q90 0 159 38q124 68 170 248q19 79 19 167q0 181 -65 304q-36 71 -108 112q-73 41 -175 41z" />
    <glyph glyph-name="oe" unicode="&#x153;" horiz-adv-x="1896" 
d="M1710 440h-602q0 -62 71 -120t185 -58t220 50t146.5 50t79.5 -38t39 -99q-1 -111 -155 -185t-346 -73q-240 0 -394 148q-136 -147 -380 -147t-394 166t-149 410q1 246 151 412t387 166q131 0 221 -34t185 -111q154 145 377 145t368 -162t146 -380q0 -80 -37 -110
t-119 -30zM350 544q0 -114 58 -192t160 -78t162 78q58 78 58 193t-58 193t-160 78t-162 -80q-58 -78 -58 -192zM1108 659h438q0 63 -62 128t-156 65t-157 -65t-63 -128z" />
    <glyph glyph-name="Scaron" unicode="&#x160;" horiz-adv-x="1099" 
d="M10 205q0 74 42 126t114 52q30 0 146 -42t209 -42t136 39t43 94.5t-24 75.5t-38 32t-50 24t-56 20t-138 43q-208 61 -285 158q-76 97 -74 239q0 225 150 346q151 121 360 121t319 -60t109 -159q-1 -68 -41 -112t-98 -44t-137 28t-151 28t-114 -33t-41.5 -97t124.5 -99
q43 -14 186 -59t250 -138q106 -94 106 -291q0 -240 -156 -364t-403 -124t-404 107q-84 57 -84 131zM860 1960q42 0 74 -36t32.5 -93t-23.5 -89t-85 -61l-180 -82q-102 -45 -127 -45t-127 45l-180 82q-61 29 -85 61t-24 89t33 93t75 36t111 -31l197 -90l197 90q70 31 112 31z
" />
    <glyph glyph-name="scaron" unicode="&#x161;" horiz-adv-x="872" 
d="M448 840q-94 0 -94 -68q0 -34 52 -60t125 -52t147 -62t125 -105t51 -167q0 -164 -119 -261t-287 -97t-299 60t-131 160q0 66 38 110t88 44t144 -46t176.5 -46t82.5 63q0 37 -31.5 55t-103.5 46t-113 45q-135 55 -193 117t-58 196t113 242q114 108 298 108t301 -96
q68 -54 68 -122t-38 -106t-80 -38t-130 40t-132 40zM744 1620q42 0 75 -36t33 -93t-24 -89t-85 -61l-180 -81q-102 -46 -127 -46t-127 46l-180 81q-61 29 -85 61t-24 89t33 93t75 36t112 -31l196 -90l197 90q69 31 111 31z" />
    <glyph glyph-name="Ydieresis" unicode="&#x178;" horiz-adv-x="1101" 
d="M385 164v520l-287 385q-113 158 -125 191t-12 63q0 66 50 107q51 40 109 40t94 -20t51 -38t40 -54l246 -350l246 350q25 36 40 54t51 38t94 20t108 -40t51 -97q0 -57 -24 -98t-113 -166l-287 -385v-520q0 -86 -45 -131t-121 -45t-121 45t-45 131zM788 1916.5
q66 0.5 113 -47t47 -113.5t-47 -112t-113 -46t-112 47t-47 113q1 66 47 112t112 46.5zM154 1758q0 66 46 112t112 47q66 0 113.5 -47.5t47.5 -113.5t-47.5 -112t-113.5 -46t-112 47t-46 113z" />
    <glyph glyph-name="Zcaron" unicode="&#x17d;" horiz-adv-x="1099" 
d="M946 307q84 1 130 -41t46 -112t-46 -112t-130 -42h-735q-233 0 -234 182q0 61 62 146l627 835h-490q-84 0 -130 41.5t-46 107.5t46 106t130 40h713q117 0 160 -52t43 -106t-36 -114t-120 -172l-530 -707h540zM860 1960q42 0 74 -36t32.5 -93t-23.5 -89t-85 -61l-180 -82
q-102 -45 -127 -45t-127 45l-180 82q-61 29 -85 61t-24 89t33 93t75 36t111 -31l197 -90l197 90q70 31 112 31z" />
    <glyph glyph-name="zcaron" unicode="&#x17e;" horiz-adv-x="948" 
d="M143 0q-153 0 -153 113q0 50 49 118l410 564h-281q-168 0 -168 147t168 148h614q82 0 116 -34t34 -75t-41 -98l-438 -588h338q168 0 167 -148q0 -147 -167 -147h-648zM784 1620q42 0 74 -36t32.5 -93t-23.5 -89t-85 -61l-180 -81q-102 -46 -127 -46t-127 46l-180 81
q-61 29 -85 61t-24 89t33 93t75 36t112 -31l196 -90l197 90q70 31 112 31z" />
    <glyph glyph-name="florin" unicode="&#x192;" horiz-adv-x="1290" 
d="M244 -389q-100 1 -146 37t-45.5 98t28.5 86q29 24 103 24t106 26t46 106l125 671h-133q-102 0 -103 93q0 92 103 92h168l61 332q33 180 105 248t241 67q109 -1 165 -27t56 -98t-32 -96t-107 -24t-99 -16.5t-32 -60.5l-66 -325h134q102 0 102 -92t-102 -93h-168l-131 -720
q-35 -188 -113 -258t-266 -70z" />
    <glyph glyph-name="circumflex" unicode="&#x2c6;" horiz-adv-x="454" 
d="M-81 1214q-42 0 -75 36q-32 36 -32 93t23 90q24 32 85 60l180 82q102 45 127 45t127 -45l181 -82q61 -29 85 -61t24 -89t-33 -93t-75 -36t-112 31l-197 90l-196 -90q-70 -31 -112 -31z" />
    <glyph glyph-name="caron" unicode="&#x2c7;" horiz-adv-x="454" 
d="M536 1620q42 0 74 -36t33 -93t-23 -89t-85 -61l-181 -81q-102 -46 -127 -46t-127 46l-180 81q-61 29 -85 61q-23 32 -23 89t32 93q33 36 75 36t112 -31l196 -90l197 90q70 31 112 31z" />
    <glyph glyph-name="uni02C9" unicode="&#x2c9;" horiz-adv-x="454" 
d="M-18 1546h491q61 0 95 -35t34 -94t-34 -94t-95 -35h-491q-59 0 -95 35q-35 35 -34 94q0 59 34 94q36 35 95 35z" />
    <glyph glyph-name="breve" unicode="&#x2d8;" horiz-adv-x="454" 
d="M227 1413q59 0 96 35q36 35 47.5 78.5t39.5 77.5t80 34t82 -36t30 -93q0 -137 -110 -227t-265 -90t-265 90t-109 227q0 57 29 94q30 35 82 35t81 -34t40 -78t47 -78.5t95 -34.5z" />
    <glyph glyph-name="dotaccent" unicode="&#x2d9;" horiz-adv-x="454" 
d="M68 1418q0 66 46 112t112 47q66 0 113.5 -47.5t47.5 -113.5t-47.5 -112t-113.5 -46t-112 47t-46 113z" />
    <glyph glyph-name="ring" unicode="&#x2da;" horiz-adv-x="454" 
d="M25 1366q0 84 58.5 143t142.5 59t144 -59t60 -143t-59 -143t-143 -59t-144 58q-59 60 -59 144zM228 1274q36 0 64 28t28 64t-28 64t-65 28t-65 -28t-28 -64t30 -64q28 -28 64 -28z" />
    <glyph glyph-name="ogonek" unicode="&#x2db;" horiz-adv-x="454" 
d="M385.5 -336q0.5 -55 -63.5 -87t-156 -32t-144 46t-53 131q0 85 73 165t155 113h165q-59 -30 -115 -96t-57 -119q0 -80 72 -80l80 14q43 0 43.5 -55z" />
    <glyph glyph-name="tilde" unicode="&#x2dc;" horiz-adv-x="454" 
d="M368 1473q38 0 88 48t97 48.5t79 -37.5t32 -108t-62 -140t-146 -70t-207.5 48t-161.5 48t-88 -48t-97 -48t-78.5 38t-31.5 108t62 140t143 70t210 -48q123 -49 161 -49z" />
    <glyph glyph-name="hungarumlaut" unicode="&#x2dd;" horiz-adv-x="454" 
d="M-354 1356q0 84 75 112l308 134q41 18 92 18t88 -41t37 -100q0 -84 -76 -113l-307 -133q-41 -19 -92 -19t-88 41t-37 101zM328 1356q0 84 75 112l308 134q41 18 92 18t88 -41t37 -100q0 -84 -76 -113l-307 -133q-41 -19 -92 -19t-88 41t-37 101z" />
    <glyph glyph-name="uni03A9" unicode="&#x3a9;" horiz-adv-x="1638" 
d="M389 246v6q-117 96 -197 242t-79 327q1 279 199 475t511 195q162 0 298 -58q246 -105 354 -365q47 -116 47 -237q0 -186 -80 -333t-203 -246v-6h313v-246h-630v184q279 166 278 584q0 199 -101 336t-275 137t-281 -135t-107 -346t79 -362t200 -214v-184h-633v246h307z
" />
    <glyph glyph-name="uni03BC" unicode="&#x3bc;" 
d="M74 -289v1225q0 70 45 118t115 48t114 -48t45 -118v-494q0 -84 53 -130t129 -46t123 54t47 139v477q-1 70 45 118t116 48t114 -48t45 -118v-782q0 -70 -45 -118t-115 -48q-102 0 -149 102q-84 -102 -196 -102t-163 100h-4v-377q0 -70 -45.5 -118t-115.5 -48t-114 48
t-44 118z" />
    <glyph glyph-name="pi" unicode="&#x3c0;" horiz-adv-x="1390" 
d="M1182 848v-518q0 -207 28 -330h-309q-39 61 -39 313v535h-291q-6 -193 -45 -450t-92 -398h-309q53 176 92 427t41 421q-152 0 -219 -21l-33 203q90 74 383 74h973l-25 -256h-155z" />
    <glyph glyph-name="uni2010" unicode="&#x2010;" horiz-adv-x="872" 
d="M195 707h483q63 -1 99 -37t36 -98t-36 -99t-99 -37h-483q-63 0 -100 37q-36 37 -36 98t36 99q37 37 100 37z" />
    <glyph glyph-name="endash" unicode="&#x2013;" horiz-adv-x="1024" 
d="M889 707q63 -1 99 -37t36 -98t-36 -99t-99 -37h-754q-63 0 -99 37t-36 98t36 99t99 37h754z" />
    <glyph glyph-name="emdash" unicode="&#x2014;" horiz-adv-x="2048" 
d="M2048 707q63 -1 99 -37t36 -98t-36 -99t-99 -37h-2048q-63 0 -99 37t-36 98t36 99t99 37h2048z" />
    <glyph glyph-name="quoteleft" unicode="&#x2018;" horiz-adv-x="530" 
d="M346 1470q68 0 112 -38t44 -90t-31 -109l-168 -301q-53 -94 -145 -94q-68 0 -112 39t-44 90t31 108l168 301q53 94 145 94z" />
    <glyph glyph-name="quoteright" unicode="&#x2019;" horiz-adv-x="530" 
d="M158 838q-68 0 -112 39t-44 90t31 108l168 301q53 94 145 94q68 0 112 -38t44 -90t-31 -109l-168 -301q-53 -94 -145 -94z" />
    <glyph glyph-name="quotesinglbase" unicode="&#x201a;" horiz-adv-x="530" 
d="M502 194q0 -52 -31 -108l-168 -301q-53 -94 -145 -94q-68 0 -112 39t-44 90t31 108l168 301q53 94 145 95q68 0 112 -39t44 -91z" />
    <glyph glyph-name="quotedblleft" unicode="&#x201c;" horiz-adv-x="985" 
d="M346 1470q68 0 112 -38t44 -90t-31 -109l-168 -301q-53 -94 -145 -94q-68 0 -112 39t-44 90t31 108l168 301q53 94 145 94zM801 1470q67 0 111 -38t44 -90t-30 -109l-168 -301q-53 -94 -146 -94q-68 0 -112 39q-81 73 -13 198l168 301q53 94 146 94z" />
    <glyph glyph-name="quotedblright" unicode="&#x201d;" horiz-adv-x="985" 
d="M158 838q-68 0 -112 39t-44 90t31 108l168 301q53 94 145 94q68 0 112 -38t44 -90t-31 -109l-168 -301q-53 -94 -145 -94zM612 838q-68 0 -112 39t-43 90q0 51 30 108l168 301q53 94 146 94q67 0 111 -38q82 -73 14 -199l-168 -301q-53 -94 -146 -94z" />
    <glyph glyph-name="quotedblbase" unicode="&#x201e;" horiz-adv-x="985" 
d="M956 194q0 -52 -30 -108l-168 -301q-53 -94 -146 -94q-68 0 -112 39q-81 73 -13 198l168 301q53 94 146 95q67 0 111 -39t44 -91zM502 194q0 -52 -31 -108l-168 -301q-53 -94 -145 -94q-68 0 -112 39t-44 90t31 108l168 301q53 94 145 95q68 0 112 -39t44 -91z" />
    <glyph glyph-name="dagger" unicode="&#x2020;" horiz-adv-x="1175" 
d="M446 1040v310q0 68 38 104t104 36t104 -36.5t37 -103.5v-310h275q52 0 84 -32t32 -84t-32 -84.5t-84 -32.5h-275v-1034q1 -68 -37 -105t-104 -37t-104 37t-38 105v1034h-274q-53 0 -85 33t-32 84t32 84t85 32h274z" />
    <glyph glyph-name="daggerdbl" unicode="&#x2021;" horiz-adv-x="1175" 
d="M446 1040v310q0 68 38 104t104 36t104 -36.5t37 -103.5v-310h275q52 0 84 -32t32 -84t-32 -84.5t-84 -32.5h-275v-492h275q52 -1 84 -33t32 -83t-32 -84t-84 -33h-275v-309q1 -68 -37 -105t-104 -37t-104 37t-38 105v309h-274q-53 0 -85 33t-32 84t32 84t85 32h274v492
h-274q-53 0 -85 33t-32 84t32 84t85 32h274z" />
    <glyph glyph-name="bullet" unicode="&#x2022;" horiz-adv-x="1024" 
d="M512 1094q152 0 258 -106t106 -258t-106 -258.5t-258 -106.5t-258 106t-107 258q1 153 107 259t258 106z" />
    <glyph glyph-name="ellipsis" unicode="&#x2026;" horiz-adv-x="2048" 
d="M164 143.5q0 72.5 53 126.5t125 54t125 -54t53 -126t-53 -124.5t-125 -52.5t-125 52t-53 124.5zM846 143.5q0 72.5 53 126.5t125 54t125 -54t53 -126t-53 -124.5t-125 -52.5t-125 52t-53 124.5zM1528 143.5q0 72.5 53 126.5t125 54t125 -54t53 -126t-53 -124.5
t-125 -52.5t-125 52t-53 124.5z" />
    <glyph glyph-name="perthousand" unicode="&#x2030;" horiz-adv-x="2123" 
d="M1057 200q39 0 67 28t27 67q0 39 -28 67q-29 28 -67 28t-66 -28t-28 -67t28 -67t67 -28zM1074 1491q46 0 81 -34t35 -80t-64 -152l-661 -1149q-31 -55 -59 -82t-74 -27t-80 34t-34 80t63 152l661 1149q31 55 58 82q28 27 74 27zM258 1163q0 -39 28 -67t66 -28t67 29
q27 29 27 67t-27 66q-29 28 -67 28t-66 -28t-28 -67zM728.5 295q-0.5 135 95.5 231t232 96t232 -96t96 -231t-96 -231t-231 -96t-232 95q-96 97 -96.5 232zM24.5 1163q0.5 135 96 231t231.5 96t232 -94q96 -96 96 -232t-96 -232t-232 -96t-232 96t-95.5 231zM1444 295
q0 135 96 231t232 96t232 -96t95.5 -231t-96.5 -231t-231 -96t-232 95q-96 97 -96 232zM1677.5 295q-0.5 -39 28 -67t66.5 -28t66 28t28 67t-28 67t-66 28t-66 -28t-28.5 -67z" />
    <glyph glyph-name="guilsinglleft" unicode="&#x2039;" horiz-adv-x="757" 
d="M147 568q0 108 82 171l172 125q114 83 181 12q29 -32 28 -77q0 -72 -55 -109l-182 -119l182 -120q55 -35 55 -93t-28 -90t-75 -32t-106 43l-172 124q-82 57 -82 165z" />
    <glyph glyph-name="guilsinglright" unicode="&#x203a;" horiz-adv-x="757" 
d="M610 574q0 -108 -82 -171l-172 -124q-59 -43 -105 -43t-75 32t-29 90t56 95l182 118l-182 121q-55 36 -55 94t28 90q65 72 180 -12l172 -125q82 -57 82 -165z" />
    <glyph glyph-name="fraction" unicode="&#x2044;" horiz-adv-x="342" 
d="M542 1491q46 0 81 -34t35 -80t-64 -152l-662 -1149q-30 -55 -58 -82t-74 -27t-81 34t-35 80t64 152l662 1149q31 55 58 82q28 27 74 27z" />
    <glyph glyph-name="Euro" unicode="&#x20ac;" horiz-adv-x="1290" 
d="M881 238q199 0 301 94v-289q-109 -74 -353 -74q-524 0 -612 502h-180l72 193h88q-2 16 -2 58t2 58h-160l72 191h104q102 518 616 518q119 1 215 -25t138 -57v-287q-96 96 -303 97q-276 0 -326 -246h553l-72 -191h-506l-2 -53l2 -63h461l-71 -193h-361q51 -233 324 -233z
" />
    <glyph glyph-name="afii61289" unicode="&#x2113;" horiz-adv-x="1202" 
d="M240 1044q0 280 116 422t292.5 142t262 -110t85.5 -282t-114 -347t-337 -373l2 -76q4 -90 56 -144t134 -53t159 57t132 138l129 -133q-170 -311 -495 -312q-184 0 -286 89q-101 89 -130 241q0 12 -2 21q-14 -10 -51 -39t-60 -43l-80 161l187 144v497zM545 1077v-307
q244 258 243 459q0 164 -112 164q-55 0 -93 -73t-38 -243z" />
    <glyph glyph-name="trademark" unicode="&#x2122;" horiz-adv-x="2048" 
d="M559 1274v-545q0 -73 -41 -103t-82 -30t-82 31t-41 102v545h-129q-52 0 -76 28t-24 64t25 64t75 28h506q50 0 74 -28t24 -64t-24 -64t-74 -28h-131zM1442 596q-86 0 -123 109l-150 405h-4v-381q0 -73 -40.5 -103t-82.5 -30t-82 31t-40 102v557q0 98 52 141t118 43
q160 0 219 -157l133 -342l133 342q59 158 219 157q66 0 118 -43t52 -141v-557q0 -73 -41 -103t-82 -30t-82 31t-41 102v381h-4l-149 -405q-37 -109 -123 -109z" />
    <glyph glyph-name="Omega" unicode="&#x2126;" horiz-adv-x="1638" 
d="M389 246v6q-117 96 -197 242t-79 327q1 279 199 475t511 195q162 0 298 -58q246 -105 354 -365q47 -116 47 -237q0 -186 -80 -333t-203 -246v-6h313v-246h-630v184q279 166 278 584q0 199 -101 336t-275 137t-281 -135t-107 -346t79 -362t200 -214v-184h-633v246h307z
" />
    <glyph glyph-name="estimated" unicode="&#x212e;" horiz-adv-x="1837" 
d="M1763 709h-1370q-10 0 -10 -11v-413q0 -27 16 -47q215 -225 521 -226q160 0 301 67t243 185h121q-115 -135 -291 -215t-379 -80q-347 -1 -595 221t-248 538t247 540q249 223 599 223t598 -223t247 -539v-20zM1452 762v418q0 29 -20 49q-215 215 -514 215t-515 -221
q-20 -20 -20 -54v-407q0 -14 10 -14h1051q8 0 8 14z" />
    <glyph glyph-name="partialdiff" unicode="&#x2202;" horiz-adv-x="1320" 
d="M584 1651q262 0 448 -216t186 -599t-177 -622t-478 -239q-159 0 -273 83t-164 195t-50 228q0 246 139 399t354 152q123 0 211 -57t125 -117h4v62q1 196 -103 338t-274 142t-303 -97l-90 221q183 127 445 127zM594 227h4q110 0 186 120t95 267q-17 60 -83 118t-166 58
t-170 -94t-71 -210t57 -188t148 -71z" />
    <glyph glyph-name="uni2206" unicode="&#x2206;" horiz-adv-x="1505" 
d="M53 0v172l514 1327h383l500 -1325v-174h-1397zM387 246h713l-234 590q-14 47 -59 180t-59 180h-9q-10 -37 -52 -160t-56 -170z" />
    <glyph glyph-name="product" unicode="&#x220f;" horiz-adv-x="1642" 
d="M1593 1194h-231v-1397h-311v1397h-459v-1397h-311v1397h-232v272h1544v-272z" />
    <glyph glyph-name="summation" unicode="&#x2211;" horiz-adv-x="1277" 
d="M1239 -203h-1190v189l533 645l-512 624v211h1128v-260h-698v-8l438 -522l-487 -594v-6h788v-279z" />
    <glyph glyph-name="minus" unicode="&#x2212;" horiz-adv-x="1228" 
d="M178 715h873q67 0 105 -35.5t38 -99.5t-39 -100t-104 -36h-873q-66 0 -104 36t-39 100q1 64 39 100t104 35z" />
    <glyph glyph-name="uni2215" unicode="&#x2215;" horiz-adv-x="342" 
d="M542 1491q46 0 81 -34t35 -80t-64 -152l-662 -1149q-30 -55 -58 -82t-74 -27t-81 34t-35 80t64 152l662 1149q31 55 58 82q28 27 74 27z" />
    <glyph glyph-name="uni2219" unicode="&#x2219;" horiz-adv-x="569" 
d="M286 391q-72 0 -126 52t-54 124.5t54 126.5t126 54t124.5 -54t52.5 -126t-52.5 -124.5t-124.5 -52.5z" />
    <glyph glyph-name="radical" unicode="&#x221a;" horiz-adv-x="1351" 
d="M1386 1759l-518 -2056h-247l-338 907l-166 -65l-51 164l401 163l231 -661l24 -93q16 -62 23 -89l5 -2q20 123 36 198l381 1534h219z" />
    <glyph glyph-name="infinity" unicode="&#x221e;" horiz-adv-x="1701" 
d="M1599 604q0 -174 -106 -278t-250 -105q-209 0 -391 244q-96 -121 -188 -182t-223 -61t-235 105t-104 270t106 270t263 106q209 0 391 -236q14 14 57 64t59 60q15 11 38 31t40 28l43 21q64 32 154 32q147 1 247 -101t99 -264v-4zM475 385q55 -1 111 33t91 70q34 36 85 98
q-72 102 -119 149t-88 63t-90 15q-87 1 -141 -61t-54 -154t58 -152t143 -61h4zM1235 813q-62 0 -113.5 -33.5t-111.5 -103.5t-64 -74q96 -125 160 -171t144 -46q80 -1 130 65t50 152t-54 148t-139 63h-2z" />
    <glyph glyph-name="integral" unicode="&#x222b;" horiz-adv-x="882" 
d="M226.5 -146q103.5 0 103.5 279t-18 603t-18 504t33.5 293.5t106.5 186.5q94 100 271 101q76 0 139 -25l-31 -205q-37 17 -97 17t-98 -56q-57 -74 -57 -346q-1 -166 17 -481t18 -512q0 -276 -78 -416q-88 -168 -312 -168q-104 0 -169 35l37 213q49 -23 152.5 -23z" />
    <glyph glyph-name="approxequal" unicode="&#x2248;" horiz-adv-x="1232" 
d="M412 976q100 0 222 -72t167 -79q18 -4 37 -4q59 0 105 38t97 116l109 -105q-59 -104 -140 -164t-158 -60t-129 19t-152 79t-158 59q-94 0 -165 -77q-24 -26 -61 -77l-108 105q51 96 142 159q92 63 192 63zM838 406q57 0 102 36t100 117l109 -104q-129 -223 -311 -224
q-64 -1 -116 19t-146 74t-127 60t-64 5t-73 -25t-66 -52t-60 -79l-108 107q51 96 142 158t196 62t265 -97l39 -24q61 -33 118 -33z" />
    <glyph glyph-name="notequal" unicode="&#x2260;" horiz-adv-x="1232" 
d="M1126 913v-174h-364l-127 -286h491v-174h-561l-110 -250l-140 59l84 191h-295v174h367l125 286h-492v174h562l108 244l139 -59l-82 -185h295z" />
    <glyph glyph-name="lessequal" unicode="&#x2264;" horiz-adv-x="1232" 
d="M1122 221l-1007 477v191l1007 477v-199l-829 -370v-4l829 -373v-199zM1128 -35h-1022v178h1022v-178z" />
    <glyph glyph-name="greaterequal" unicode="&#x2265;" horiz-adv-x="1232" 
d="M119 1366l1007 -479v-189l-1007 -477v199l827 373v4l-827 370v199zM1122 -35h-1013v178h1013v-178z" />
    <glyph glyph-name="lozenge" unicode="&#x25ca;" horiz-adv-x="1351" 
d="M1245 731l-452 -837h-246l-441 837l451 842h246zM971 725l-252 492q-33 78 -39 116h-8q-18 -66 -41 -116l-252 -480l254 -497q16 -35 39 -111h8q23 78 39 109z" />
    <glyph glyph-name="fi" unicode="&#xfb01;" 
d="M752 154v782q0 70 45 118t115 48t114 -48t45 -118v-782q0 -70 -45.5 -118t-115.5 -48t-114 48t-44 118zM721 1386q0 80 56.5 136t134.5 56t134 -56t56 -136t-56 -135t-134 -55t-135 55q-56 55 -56 135zM156 154v641h-37q-168 0 -168 147t168 148h37v143q0 147 93 245
t238 99q213 0 213 -147t-151 -148q-39 0 -56 -22t-18 -82v-88h88q168 0 168 -148t-168 -147h-88v-641q0 -70 -45.5 -118t-115.5 -48t-114 48t-44 118z" />
    <glyph glyph-name="fl" unicode="&#xfb02;" 
d="M752 154v1257q0 70 45 118t115 48t114 -48t45 -118v-1257q0 -70 -45.5 -118t-115.5 -48t-114 48t-44 118zM156 154v641h-37q-168 0 -168 147t168 148h37v143q0 147 93 245t238 99q213 0 213 -147t-151 -148q-39 0 -56 -22t-18 -82v-88h88q168 0 168 -148t-168 -147h-88
v-641q0 -70 -45.5 -118t-115.5 -48t-114 48t-44 118z" />
    <glyph glyph-name="a.superior" horiz-adv-x="761" 
d="M23 1146q0 146 94 246t222 100t193 -73q27 72 97 72q110 0 110 -90v-510q-2 -91 -91.5 -91t-115.5 72q-70 -72 -180 -71q-141 -1 -235 99t-94 246zM244 1145q0 -59 38 -103t100 -44t99 44t37 104t-37 104t-99 44t-100 -45t-38 -104z" />
    <glyph glyph-name="o.superior" horiz-adv-x="737" 
d="M725 1148q0 -146 -100 -246t-258 -100q-159 0 -257 98t-98 246t98 246t258 98t258.5 -98t98.5 -244zM504 1144q0 60 -37 105t-98 45t-99 -45t-38 -104t38 -103q36 -44 98 -44t99 42q37 44 37 104z" />
    <glyph glyph-name="one.superior" horiz-adv-x="516" 
d="M147 700v582h-71q-47 0 -73 29t-26 69t26 70t73 29h188q49 0 83 -28t34 -85v-666q0 -48 -32 -82t-86 -34t-85 34t-31 82z" />
    <glyph glyph-name="two.superior" horiz-adv-x="739" 
d="M608 793q47 0 73 -28.5t26 -70.5t-26 -70t-73 -28h-450q-49 0 -87 25t-38 63t66 111q67 71 145 137t144 144t65 122q0 44 -29.5 64t-67.5 20t-62 -27t-30 -57t-33 -57t-77 -27t-78 29t-27 65q-1 117 91 200t230 83t227 -74t89 -192q0 -61 -36 -129t-70 -107t-106 -107
t-91 -89h225z" />
    <glyph glyph-name="three.superior" horiz-adv-x="763" 
d="M264 1056q0 46 30 68t64 26q95 10 95 79q0 53 -84 53q-51 0 -103 -44t-97 -44t-69 28t-24 64q0 94 96 150t213 56t203 -68q86 -66 86 -174t-115 -173q78 -31 119 -90t41 -133q1 -122 -95 -196t-234 -74t-242 70q-103 71 -103 165q0 41 28 68q29 27 69 27q76 -1 110 -61
t131 -60q41 1 72 29t30 63q0 83 -109 86q-42 -1 -77 19t-35 66z" />
    </font>
</defs>
</svg>
